# MagicaVoxel @ Ephtracy

# group
o 

# material
mtllib ShieldTank-0-1.mtl
usemtl palette

# normals
vn -1 0 0
vn 1 0 0
vn 0 0 1
vn 0 0 -1
vn 0 -1 0
vn 0 1 0

# texcoords
vt 0.849609 0.5
vt 0.955078 0.5
vt 0.966797 0.5
vt 0.970703 0.5

# verts
v -1.2 -0.8 0.1
v -1.2 -0.8 -0.1
v -1.2 -0.6 0.1
v -1.2 -0.6 -0.1
v -1.2 0.3 0.1
v -1.2 0.3 -0.1
v -1.2 0.5 0.1
v -1.2 0.5 -0.1
v -1.1 -0.9 0.1
v -1.1 -0.9 -0.1
v -1.1 -0.8 0.2
v -1.1 -0.8 0.1
v -1.1 -0.8 -0.1
v -1.1 -0.8 -0.2
v -1.1 -0.6 0.2
v -1.1 -0.6 0.1
v -1.1 -0.6 -0.1
v -1.1 -0.6 -0.2
v -1.1 -0.5 0.1
v -1.1 -0.5 -0.1
v -1 -1 0.2
v -1 -1 -0.2
v -1 -0.9 0.1
v -1 -0.9 -0.1
v -1 -0.8 0.2
v -1 -0.8 0.1
v -1 -0.8 -0.1
v -1 -0.8 -0.2
v -1 -0.6 0.2
v -1 -0.6 0.1
v -1 -0.6 -0.1
v -1 -0.6 -0.2
v -1 -0.5 0.1
v -1 -0.5 -0.1
v -1 -0.4 0.2
v -1 -0.4 -0.2
v -0.9 -1.1 0.2
v -0.9 -1.1 -0.2
v -0.9 -1 0.4
v -0.9 -1 0.2
v -0.9 -1 -0.2
v -0.9 -1 -0.4
v -0.9 -0.4 0.4
v -0.9 -0.4 0.2
v -0.9 -0.4 -0.2
v -0.9 -0.4 -0.4
v -0.9 -0.3 0.2
v -0.9 -0.3 -0.2
v -0.8 -1.1 0.4
v -0.8 -1.1 0.2
v -0.8 -1.1 -0.2
v -0.8 -1.1 -0.4
v -0.8 -1 0.6
v -0.8 -1 0.4
v -0.8 -1 0.2
v -0.8 -1 -0.2
v -0.8 -1 -0.4
v -0.8 -1 -0.6
v -0.8 -0.4 0.6
v -0.8 -0.4 0.4
v -0.8 -0.4 0.2
v -0.8 -0.4 -0.2
v -0.8 -0.4 -0.4
v -0.8 -0.4 -0.6
v -0.8 -0.3 0.4
v -0.8 -0.3 0.2
v -0.8 -0.3 0.1
v -0.8 -0.3 -0.1
v -0.8 -0.3 -0.2
v -0.8 -0.3 -0.4
v -0.8 -0.2 0.1
v -0.8 -0.2 -0.1
v -0.7 -1.1 0.6
v -0.7 -1.1 0.4
v -0.7 -1.1 -0.4
v -0.7 -1.1 -0.6
v -0.7 -1 0.7
v -0.7 -1 0.6
v -0.7 -1 0.4
v -0.7 -1 -0.4
v -0.7 -1 -0.6
v -0.7 -1 -0.7
v -0.7 -0.4 0.7
v -0.7 -0.4 0.6
v -0.7 -0.4 0.4
v -0.7 -0.4 -0.4
v -0.7 -0.4 -0.6
v -0.7 -0.4 -0.7
v -0.7 -0.3 0.6
v -0.7 -0.3 0.4
v -0.7 -0.3 -0.4
v -0.7 -0.3 -0.6
v -0.7 -0.2 0.1
v -0.7 -0.2 -0.1
v -0.7 -0.1 0.1
v -0.7 -0.1 -0.1
v -0.6 -1.1 0.7
v -0.6 -1.1 0.6
v -0.6 -1.1 -0.6
v -0.6 -1.1 -0.7
v -0.6 -1 0.8
v -0.6 -1 0.7
v -0.6 -1 0.6
v -0.6 -1 -0.6
v -0.6 -1 -0.7
v -0.6 -1 -0.8
v -0.6 -0.4 0.8
v -0.6 -0.4 0.7
v -0.6 -0.4 0.6
v -0.6 -0.4 -0.6
v -0.6 -0.4 -0.7
v -0.6 -0.4 -0.8
v -0.6 -0.3 0.7
v -0.6 -0.3 0.6
v -0.6 -0.3 -0.6
v -0.6 -0.3 -0.7
v -0.6 -0.1 0.1
v -0.6 -0.1 -0.1
v -0.6 0 0.1
v -0.6 0 -0.1
v -0.5 -1.1 0.8
v -0.5 -1.1 0.7
v -0.5 -1.1 -0.7
v -0.5 -1.1 -0.8
v -0.5 -1 0.9
v -0.5 -1 0.8
v -0.5 -1 0.7
v -0.5 -1 -0.7
v -0.5 -1 -0.8
v -0.5 -1 -0.9
v -0.5 -0.4 0.9
v -0.5 -0.4 0.8
v -0.5 -0.4 0.7
v -0.5 -0.4 -0.7
v -0.5 -0.4 -0.8
v -0.5 -0.4 -0.9
v -0.5 -0.3 0.8
v -0.5 -0.3 0.7
v -0.5 -0.3 -0.7
v -0.5 -0.3 -0.8
v -0.5 0 0.1
v -0.5 0 -0.1
v -0.5 0.1 0.1
v -0.5 0.1 -0.1
v -0.5 0.2 0.1
v -0.5 0.2 -0.1
v -0.5 0.3 0.2
v -0.5 0.3 0.1
v -0.5 0.3 -0.1
v -0.5 0.3 -0.2
v -0.5 0.5 0.2
v -0.5 0.5 0.1
v -0.5 0.5 -0.1
v -0.5 0.5 -0.2
v -0.5 0.6 0.1
v -0.5 0.6 -0.1
v -0.4 0.1 0.1
v -0.4 0.1 -0.1
v -0.4 0.2 0.3
v -0.4 0.2 0.1
v -0.4 0.2 -0.1
v -0.4 0.2 -0.3
v -0.4 0.3 0.2
v -0.4 0.3 0.1
v -0.4 0.3 -0.1
v -0.4 0.3 -0.2
v -0.4 0.5 0.3
v -0.4 0.5 0.2
v -0.4 0.5 0.1
v -0.4 0.5 -0.1
v -0.4 0.5 -0.2
v -0.4 0.5 -0.3
v -0.4 0.6 0.2
v -0.4 0.6 0.1
v -0.4 0.6 -0.1
v -0.4 0.6 -0.2
v -0.3 -1.1 0.9
v -0.3 -1.1 0.8
v -0.3 -1.1 -0.8
v -0.3 -1.1 -0.9
v -0.3 -1 1
v -0.3 -1 0.9
v -0.3 -1 0.8
v -0.3 -1 -0.8
v -0.3 -1 -0.9
v -0.3 -1 -1
v -0.3 -0.4 1
v -0.3 -0.4 0.9
v -0.3 -0.4 0.8
v -0.3 -0.4 -0.8
v -0.3 -0.4 -0.9
v -0.3 -0.4 -1
v -0.3 -0.3 0.9
v -0.3 -0.3 0.8
v -0.3 -0.3 -0.8
v -0.3 -0.3 -0.9
v -0.3 0.2 0.4
v -0.3 0.2 0.3
v -0.3 0.2 -0.3
v -0.3 0.2 -0.4
v -0.3 0.5 0.4
v -0.3 0.5 0.3
v -0.3 0.5 0.2
v -0.3 0.5 -0.2
v -0.3 0.5 -0.3
v -0.3 0.5 -0.4
v -0.3 0.6 0.3
v -0.3 0.6 0.2
v -0.3 0.6 -0.2
v -0.3 0.6 -0.3
v -0.2 0.2 0.5
v -0.2 0.2 0.4
v -0.2 0.2 -0.4
v -0.2 0.2 -0.5
v -0.2 0.5 0.5
v -0.2 0.5 0.4
v -0.2 0.5 0.3
v -0.2 0.5 -0.3
v -0.2 0.5 -0.4
v -0.2 0.5 -0.5
v -0.2 0.6 0.4
v -0.2 0.6 0.3
v -0.2 0.6 -0.3
v -0.2 0.6 -0.4
v -0.1 -1.1 1
v -0.1 -1.1 0.9
v -0.1 -1.1 -0.9
v -0.1 -1.1 -1
v -0.1 -1 1.1
v -0.1 -1 1
v -0.1 -1 0.9
v -0.1 -1 -0.9
v -0.1 -1 -1
v -0.1 -1 -1.1
v -0.1 -0.8 1.2
v -0.1 -0.8 1.1
v -0.1 -0.8 -1.1
v -0.1 -0.8 -1.2
v -0.1 -0.6 1.2
v -0.1 -0.6 1.1
v -0.1 -0.6 -1.1
v -0.1 -0.6 -1.2
v -0.1 -0.4 1.1
v -0.1 -0.4 1
v -0.1 -0.4 0.9
v -0.1 -0.4 -0.9
v -0.1 -0.4 -1
v -0.1 -0.4 -1.1
v -0.1 -0.3 1
v -0.1 -0.3 0.9
v -0.1 -0.3 -0.9
v -0.1 -0.3 -1
v -0.1 0.2 0.6
v -0.1 0.2 0.5
v -0.1 0.2 -0.5
v -0.1 0.2 -0.6
v -0.1 0.5 0.6
v -0.1 0.5 0.5
v -0.1 0.5 0.4
v -0.1 0.5 -0.4
v -0.1 0.5 -0.5
v -0.1 0.5 -0.6
v -0.1 0.6 0.5
v -0.1 0.6 0.4
v -0.1 0.6 -0.4
v -0.1 0.6 -0.5
v 0 -0.9 1.2
v 0 -0.9 1.1
v 0 -0.9 -1.1
v 0 -0.9 -1.2
v 0 -0.8 1.6
v 0 -0.8 1.2
v 0 -0.8 1.1
v 0 -0.8 -1.1
v 0 -0.8 -1.2
v 0 -0.8 -1.6
v 0 -0.6 1.6
v 0 -0.6 1.2
v 0 -0.6 1.1
v 0 -0.6 -1.1
v 0 -0.6 -1.2
v 0 -0.6 -1.6
v 0 -0.5 1.2
v 0 -0.5 1.1
v 0 -0.5 -1.1
v 0 -0.5 -1.2
v 0 -0.4 0.9
v 0 -0.4 0.4
v 0 -0.4 -0.4
v 0 -0.4 -0.9
v 0 -0.3 0.9
v 0 -0.3 0.8
v 0 -0.3 0.4
v 0 -0.3 -0.4
v 0 -0.3 -0.8
v 0 -0.3 -0.9
v 0 -0.2 0.9
v 0 -0.2 0.8
v 0 -0.2 0.7
v 0 -0.2 -0.7
v 0 -0.2 -0.8
v 0 -0.2 -0.9
v 0 -0.1 0.8
v 0 -0.1 0.7
v 0 -0.1 0.6
v 0 -0.1 -0.6
v 0 -0.1 -0.7
v 0 -0.1 -0.8
v 0 0 0.7
v 0 0 0.6
v 0 0 0.5
v 0 0 -0.5
v 0 0 -0.6
v 0 0 -0.7
v 0 0.1 0.6
v 0 0.1 0.5
v 0 0.1 0.4
v 0 0.1 -0.4
v 0 0.1 -0.5
v 0 0.1 -0.6
v 0 0.2 0.5
v 0 0.2 0.4
v 0 0.2 -0.4
v 0 0.2 -0.5
v 0.3 -1.1 0.9
v 0.3 -1.1 0.8
v 0.3 -1.1 -0.8
v 0.3 -1.1 -0.9
v 0.3 -0.3 0.9
v 0.3 -0.3 0.8
v 0.3 -0.3 -0.8
v 0.3 -0.3 -0.9
v 0.3 0.2 0.4
v 0.3 0.2 0.3
v 0.3 0.2 -0.3
v 0.3 0.2 -0.4
v 0.3 0.5 0.4
v 0.3 0.5 0.3
v 0.3 0.5 -0.3
v 0.3 0.5 -0.4
v 0.3 0.6 0.4
v 0.3 0.6 0.3
v 0.3 0.6 -0.3
v 0.3 0.6 -0.4
v 0.4 0.2 0.3
v 0.4 0.2 0.2
v 0.4 0.2 -0.2
v 0.4 0.2 -0.3
v 0.4 0.5 0.3
v 0.4 0.5 0.2
v 0.4 0.5 -0.2
v 0.4 0.5 -0.3
v 0.4 0.6 0.3
v 0.4 0.6 0.2
v 0.4 0.6 -0.2
v 0.4 0.6 -0.3
v 0.5 -1.1 0.8
v 0.5 -1.1 0.7
v 0.5 -1.1 -0.7
v 0.5 -1.1 -0.8
v 0.5 -0.4 0.1
v 0.5 -0.4 -0.1
v 0.5 -0.3 0.8
v 0.5 -0.3 0.7
v 0.5 -0.3 0.1
v 0.5 -0.3 -0.1
v 0.5 -0.3 -0.7
v 0.5 -0.3 -0.8
v 0.5 0.1 0.1
v 0.5 0.1 -0.1
v 0.5 0.2 0.2
v 0.5 0.2 0.1
v 0.5 0.2 -0.1
v 0.5 0.2 -0.2
v 0.5 0.5 0.2
v 0.5 0.5 -0.2
v 0.5 0.6 0.2
v 0.5 0.6 -0.2
v 0.6 0 0.1
v 0.6 0 -0.1
v 0.6 0.1 0.1
v 0.6 0.1 -0.1
v 0.6 0.6 -0.1
v 0.6 0.6 -0.2
v 0.6 1 -0.1
v 0.6 1 -0.2
v 0.6 1.1 -0.1
v 0.6 1.1 -0.2
v 0.7 -1.1 0.7
v 0.7 -1.1 0.6
v 0.7 -1.1 -0.6
v 0.7 -1.1 -0.7
v 0.7 -0.3 0.7
v 0.7 -0.3 0.6
v 0.7 -0.3 -0.6
v 0.7 -0.3 -0.7
v 0.7 -0.1 0.1
v 0.7 -0.1 -0.1
v 0.7 0 0.1
v 0.7 0 -0.1
v 0.8 -1.1 0.6
v 0.8 -1.1 0.4
v 0.8 -1.1 -0.4
v 0.8 -1.1 -0.6
v 0.8 -0.3 0.6
v 0.8 -0.3 0.4
v 0.8 -0.3 -0.4
v 0.8 -0.3 -0.6
v 0.8 -0.2 0.1
v 0.8 -0.2 -0.1
v 0.8 -0.1 0.1
v 0.8 -0.1 -0.1
v 0.9 -1.1 0.4
v 0.9 -1.1 0.2
v 0.9 -1.1 -0.2
v 0.9 -1.1 -0.4
v 0.9 -0.3 0.4
v 0.9 -0.3 0.2
v 0.9 -0.3 0.1
v 0.9 -0.3 -0.1
v 0.9 -0.3 -0.2
v 0.9 -0.3 -0.4
v 0.9 -0.2 0.1
v 0.9 -0.2 -0.1
v 1 -1.1 0.2
v 1 -1.1 -0.2
v 1 -0.4 0.1
v 1 -0.4 -0.1
v 1 -0.3 0.2
v 1 -0.3 0.1
v 1 -0.3 -0.1
v 1 -0.3 -0.2
v -0.8 -1.1 0.2
v -0.8 -1.1 -0.2
v -0.8 -0.4 0.1
v -0.8 -0.4 -0.1
v -0.8 -0.3 0.2
v -0.8 -0.3 0.1
v -0.8 -0.3 -0.1
v -0.8 -0.3 -0.2
v -0.7 -1.1 0.4
v -0.7 -1.1 0.2
v -0.7 -1.1 -0.2
v -0.7 -1.1 -0.4
v -0.7 -0.3 0.4
v -0.7 -0.3 0.2
v -0.7 -0.3 0.1
v -0.7 -0.3 -0.1
v -0.7 -0.3 -0.2
v -0.7 -0.3 -0.4
v -0.7 -0.2 0.1
v -0.7 -0.2 -0.1
v -0.6 -1.1 0.6
v -0.6 -1.1 0.4
v -0.6 -1.1 -0.4
v -0.6 -1.1 -0.6
v -0.6 -0.3 0.6
v -0.6 -0.3 0.4
v -0.6 -0.3 -0.4
v -0.6 -0.3 -0.6
v -0.6 -0.2 0.1
v -0.6 -0.2 -0.1
v -0.6 -0.1 0.1
v -0.6 -0.1 -0.1
v -0.5 -1.1 0.7
v -0.5 -1.1 0.6
v -0.5 -1.1 -0.6
v -0.5 -1.1 -0.7
v -0.5 -0.3 0.7
v -0.5 -0.3 0.6
v -0.5 -0.3 -0.6
v -0.5 -0.3 -0.7
v -0.5 -0.1 0.1
v -0.5 -0.1 -0.1
v -0.5 0 0.1
v -0.5 0 -0.1
v -0.4 0 0.1
v -0.4 0 -0.1
v -0.4 0.1 0.1
v -0.4 0.1 -0.1
v -0.3 -1.1 0.8
v -0.3 -1.1 0.7
v -0.3 -1.1 -0.7
v -0.3 -1.1 -0.8
v -0.3 -0.4 0.1
v -0.3 -0.4 -0.1
v -0.3 -0.3 0.8
v -0.3 -0.3 0.7
v -0.3 -0.3 0.1
v -0.3 -0.3 -0.1
v -0.3 -0.3 -0.7
v -0.3 -0.3 -0.8
v -0.3 0.1 0.1
v -0.3 0.1 -0.1
v -0.3 0.2 0.2
v -0.3 0.2 0.1
v -0.3 0.2 -0.1
v -0.3 0.2 -0.2
v -0.3 0.3 0.1
v -0.3 0.3 -0.1
v -0.3 0.4 0.1
v -0.3 0.4 -0.1
v -0.3 0.5 0.2
v -0.3 0.5 -0.2
v -0.3 0.6 0.2
v -0.3 0.6 -0.2
v -0.2 0.2 0.3
v -0.2 0.2 0.2
v -0.2 0.2 -0.2
v -0.2 0.2 -0.3
v -0.2 0.5 0.3
v -0.2 0.5 0.2
v -0.2 0.5 -0.2
v -0.2 0.5 -0.3
v -0.2 0.6 0.3
v -0.2 0.6 0.2
v -0.2 0.6 -0.2
v -0.2 0.6 -0.3
v -0.1 -1.1 0.9
v -0.1 -1.1 0.8
v -0.1 -1.1 -0.8
v -0.1 -1.1 -0.9
v -0.1 -0.3 0.9
v -0.1 -0.3 0.8
v -0.1 -0.3 -0.8
v -0.1 -0.3 -0.9
v -0.1 0.2 0.4
v -0.1 0.2 0.3
v -0.1 0.2 -0.3
v -0.1 0.2 -0.4
v -0.1 0.5 0.4
v -0.1 0.5 0.3
v -0.1 0.5 -0.3
v -0.1 0.5 -0.4
v -0.1 0.6 0.4
v -0.1 0.6 0.3
v -0.1 0.6 -0.3
v -0.1 0.6 -0.4
v 0.2 -0.9 1.2
v 0.2 -0.9 1.1
v 0.2 -0.9 -1.1
v 0.2 -0.9 -1.2
v 0.2 -0.8 1.6
v 0.2 -0.8 1.2
v 0.2 -0.8 1.1
v 0.2 -0.8 -1.1
v 0.2 -0.8 -1.2
v 0.2 -0.8 -1.6
v 0.2 -0.6 1.6
v 0.2 -0.6 1.2
v 0.2 -0.6 1.1
v 0.2 -0.6 -1.1
v 0.2 -0.6 -1.2
v 0.2 -0.6 -1.6
v 0.2 -0.5 1.2
v 0.2 -0.5 1.1
v 0.2 -0.5 -1.1
v 0.2 -0.5 -1.2
v 0.2 -0.4 0.9
v 0.2 -0.4 0.4
v 0.2 -0.4 -0.4
v 0.2 -0.4 -0.9
v 0.2 -0.3 0.9
v 0.2 -0.3 0.8
v 0.2 -0.3 0.4
v 0.2 -0.3 -0.4
v 0.2 -0.3 -0.8
v 0.2 -0.3 -0.9
v 0.2 -0.2 0.9
v 0.2 -0.2 0.8
v 0.2 -0.2 0.7
v 0.2 -0.2 -0.7
v 0.2 -0.2 -0.8
v 0.2 -0.2 -0.9
v 0.2 -0.1 0.8
v 0.2 -0.1 0.7
v 0.2 -0.1 0.6
v 0.2 -0.1 -0.6
v 0.2 -0.1 -0.7
v 0.2 -0.1 -0.8
v 0.2 0 0.7
v 0.2 0 0.6
v 0.2 0 0.5
v 0.2 0 -0.5
v 0.2 0 -0.6
v 0.2 0 -0.7
v 0.2 0.1 0.6
v 0.2 0.1 0.5
v 0.2 0.1 0.4
v 0.2 0.1 -0.4
v 0.2 0.1 -0.5
v 0.2 0.1 -0.6
v 0.2 0.2 0.5
v 0.2 0.2 0.4
v 0.2 0.2 -0.4
v 0.2 0.2 -0.5
v 0.3 -1.1 1
v 0.3 -1.1 0.9
v 0.3 -1.1 -0.9
v 0.3 -1.1 -1
v 0.3 -1 1.1
v 0.3 -1 1
v 0.3 -1 0.9
v 0.3 -1 -0.9
v 0.3 -1 -1
v 0.3 -1 -1.1
v 0.3 -0.8 1.2
v 0.3 -0.8 1.1
v 0.3 -0.8 -1.1
v 0.3 -0.8 -1.2
v 0.3 -0.6 1.2
v 0.3 -0.6 1.1
v 0.3 -0.6 -1.1
v 0.3 -0.6 -1.2
v 0.3 -0.4 1.1
v 0.3 -0.4 1
v 0.3 -0.4 0.9
v 0.3 -0.4 -0.9
v 0.3 -0.4 -1
v 0.3 -0.4 -1.1
v 0.3 -0.3 1
v 0.3 -0.3 0.9
v 0.3 -0.3 -0.9
v 0.3 -0.3 -1
v 0.3 0.2 0.6
v 0.3 0.2 0.5
v 0.3 0.2 -0.5
v 0.3 0.2 -0.6
v 0.3 0.5 0.6
v 0.3 0.5 0.5
v 0.3 0.5 0.4
v 0.3 0.5 -0.4
v 0.3 0.5 -0.5
v 0.3 0.5 -0.6
v 0.3 0.6 0.5
v 0.3 0.6 0.4
v 0.3 0.6 -0.4
v 0.3 0.6 -0.5
v 0.4 0.2 0.5
v 0.4 0.2 0.4
v 0.4 0.2 -0.4
v 0.4 0.2 -0.5
v 0.4 0.5 0.5
v 0.4 0.5 0.4
v 0.4 0.5 0.3
v 0.4 0.5 -0.3
v 0.4 0.5 -0.4
v 0.4 0.5 -0.5
v 0.4 0.6 0.4
v 0.4 0.6 0.3
v 0.4 0.6 -0.3
v 0.4 0.6 -0.4
v 0.5 -1.1 0.9
v 0.5 -1.1 0.8
v 0.5 -1.1 -0.8
v 0.5 -1.1 -0.9
v 0.5 -1 1
v 0.5 -1 0.9
v 0.5 -1 0.8
v 0.5 -1 -0.8
v 0.5 -1 -0.9
v 0.5 -1 -1
v 0.5 -0.4 1
v 0.5 -0.4 0.9
v 0.5 -0.4 0.8
v 0.5 -0.4 -0.8
v 0.5 -0.4 -0.9
v 0.5 -0.4 -1
v 0.5 -0.3 0.9
v 0.5 -0.3 0.8
v 0.5 -0.3 -0.8
v 0.5 -0.3 -0.9
v 0.5 0.2 0.4
v 0.5 0.2 0.3
v 0.5 0.2 -0.3
v 0.5 0.2 -0.4
v 0.5 0.5 0.4
v 0.5 0.5 0.3
v 0.5 0.5 0.2
v 0.5 0.5 -0.2
v 0.5 0.5 -0.3
v 0.5 0.5 -0.4
v 0.5 0.6 0.3
v 0.5 0.6 0.2
v 0.5 0.6 -0.2
v 0.5 0.6 -0.3
v 0.6 0.1 0.1
v 0.6 0.1 -0.1
v 0.6 0.2 0.3
v 0.6 0.2 0.2
v 0.6 0.2 0.1
v 0.6 0.2 -0.1
v 0.6 0.2 -0.2
v 0.6 0.2 -0.3
v 0.6 0.5 0.3
v 0.6 0.5 0.2
v 0.6 0.5 -0.1
v 0.6 0.5 -0.2
v 0.6 0.5 -0.3
v 0.6 0.6 0.2
v 0.6 0.6 -0.1
v 0.7 -1.1 0.8
v 0.7 -1.1 0.7
v 0.7 -1.1 -0.7
v 0.7 -1.1 -0.8
v 0.7 -1 0.9
v 0.7 -1 0.8
v 0.7 -1 0.7
v 0.7 -1 -0.7
v 0.7 -1 -0.8
v 0.7 -1 -0.9
v 0.7 -0.4 0.9
v 0.7 -0.4 0.8
v 0.7 -0.4 0.7
v 0.7 -0.4 -0.7
v 0.7 -0.4 -0.8
v 0.7 -0.4 -0.9
v 0.7 -0.3 0.8
v 0.7 -0.3 0.7
v 0.7 -0.3 -0.7
v 0.7 -0.3 -0.8
v 0.7 0 0.1
v 0.7 0 -0.1
v 0.7 0.1 0.1
v 0.7 0.1 -0.1
v 0.7 0.2 0.2
v 0.7 0.2 -0.2
v 0.7 0.5 0.2
v 0.7 0.5 -0.1
v 0.7 1 -0.1
v 0.7 1 -0.2
v 0.7 1.1 -0.1
v 0.7 1.1 -0.2
v 0.8 -1.1 0.7
v 0.8 -1.1 0.6
v 0.8 -1.1 -0.6
v 0.8 -1.1 -0.7
v 0.8 -1 0.8
v 0.8 -1 0.7
v 0.8 -1 0.6
v 0.8 -1 -0.6
v 0.8 -1 -0.7
v 0.8 -1 -0.8
v 0.8 -0.7 0.8
v 0.8 -0.7 0.7
v 0.8 -0.4 0.7
v 0.8 -0.4 0.6
v 0.8 -0.4 -0.6
v 0.8 -0.4 -0.7
v 0.8 -0.4 -0.8
v 0.8 -0.3 0.7
v 0.8 -0.3 0.6
v 0.8 -0.3 -0.6
v 0.8 -0.3 -0.7
v 0.8 -0.1 0.1
v 0.8 -0.1 -0.1
v 0.8 0 0.1
v 0.8 0 -0.1
v 0.9 -1.1 0.6
v 0.9 -1.1 0.4
v 0.9 -1.1 -0.4
v 0.9 -1.1 -0.6
v 0.9 -1 0.7
v 0.9 -1 0.6
v 0.9 -1 0.4
v 0.9 -1 -0.4
v 0.9 -1 -0.6
v 0.9 -1 -0.7
v 0.9 -0.7 0.8
v 0.9 -0.7 0.7
v 0.9 -0.4 0.8
v 0.9 -0.4 0.6
v 0.9 -0.4 0.4
v 0.9 -0.4 -0.4
v 0.9 -0.4 -0.6
v 0.9 -0.4 -0.7
v 0.9 -0.3 0.6
v 0.9 -0.3 0.4
v 0.9 -0.3 -0.4
v 0.9 -0.3 -0.6
v 0.9 -0.2 0.1
v 0.9 -0.2 -0.1
v 0.9 -0.1 0.1
v 0.9 -0.1 -0.1
v 1 -1.1 0.4
v 1 -1.1 0.2
v 1 -1.1 -0.2
v 1 -1.1 -0.4
v 1 -1 0.6
v 1 -1 0.4
v 1 -1 0.2
v 1 -1 -0.2
v 1 -1 -0.4
v 1 -1 -0.6
v 1 -0.4 0.6
v 1 -0.4 0.4
v 1 -0.4 0.2
v 1 -0.4 -0.2
v 1 -0.4 -0.4
v 1 -0.4 -0.6
v 1 -0.3 0.4
v 1 -0.3 0.2
v 1 -0.3 0.1
v 1 -0.3 -0.1
v 1 -0.3 -0.2
v 1 -0.3 -0.4
v 1 -0.2 0.1
v 1 -0.2 -0.1
v 1.1 -1.1 0.2
v 1.1 -1.1 -0.2
v 1.1 -1 0.4
v 1.1 -1 0.2
v 1.1 -1 -0.2
v 1.1 -1 -0.4
v 1.1 -0.4 0.4
v 1.1 -0.4 0.2
v 1.1 -0.4 -0.2
v 1.1 -0.4 -0.4
v 1.1 -0.3 0.2
v 1.1 -0.3 -0.2
v 1.2 -1 0.2
v 1.2 -1 -0.2
v 1.2 -0.4 0.2
v 1.2 -0.4 -0.2
v 0 -0.8 1.6
v 0 -0.6 1.6
v 0.2 -0.8 1.6
v 0.2 -0.6 1.6
v -0.1 -0.8 1.2
v -0.1 -0.6 1.2
v 0 -0.9 1.2
v 0 -0.8 1.2
v 0 -0.6 1.2
v 0 -0.5 1.2
v 0.2 -0.9 1.2
v 0.2 -0.8 1.2
v 0.2 -0.6 1.2
v 0.2 -0.5 1.2
v 0.3 -0.8 1.2
v 0.3 -0.6 1.2
v -0.1 -1 1.1
v -0.1 -0.8 1.1
v -0.1 -0.6 1.1
v -0.1 -0.4 1.1
v 0 -0.9 1.1
v 0 -0.8 1.1
v 0 -0.6 1.1
v 0 -0.5 1.1
v 0.2 -0.9 1.1
v 0.2 -0.8 1.1
v 0.2 -0.6 1.1
v 0.2 -0.5 1.1
v 0.3 -1 1.1
v 0.3 -0.8 1.1
v 0.3 -0.6 1.1
v 0.3 -0.4 1.1
v -0.3 -1 1
v -0.3 -0.4 1
v -0.1 -1.1 1
v -0.1 -1 1
v -0.1 -0.4 1
v -0.1 -0.3 1
v 0.3 -1.1 1
v 0.3 -1 1
v 0.3 -0.4 1
v 0.3 -0.3 1
v 0.5 -1 1
v 0.5 -0.4 1
v -0.5 -1 0.9
v -0.5 -0.4 0.9
v -0.3 -1.1 0.9
v -0.3 -1 0.9
v -0.3 -0.4 0.9
v -0.3 -0.3 0.9
v -0.1 -1.1 0.9
v -0.1 -1 0.9
v -0.1 -0.4 0.9
v -0.1 -0.3 0.9
v 0 -0.3 0.9
v 0 -0.2 0.9
v 0.2 -0.3 0.9
v 0.2 -0.2 0.9
v 0.3 -1.1 0.9
v 0.3 -1 0.9
v 0.3 -0.4 0.9
v 0.3 -0.3 0.9
v 0.5 -1.1 0.9
v 0.5 -1 0.9
v 0.5 -0.4 0.9
v 0.5 -0.3 0.9
v 0.7 -1 0.9
v 0.7 -0.4 0.9
v -0.6 -1 0.8
v -0.6 -0.4 0.8
v -0.5 -1.1 0.8
v -0.5 -1 0.8
v -0.5 -0.4 0.8
v -0.5 -0.3 0.8
v -0.3 -1.1 0.8
v -0.3 -1 0.8
v -0.3 -0.4 0.8
v -0.3 -0.3 0.8
v 0 -0.2 0.8
v 0 -0.1 0.8
v 0.2 -0.2 0.8
v 0.2 -0.1 0.8
v 0.5 -1.1 0.8
v 0.5 -1 0.8
v 0.5 -0.4 0.8
v 0.5 -0.3 0.8
v 0.7 -1.1 0.8
v 0.7 -1 0.8
v 0.7 -0.4 0.8
v 0.7 -0.3 0.8
v 0.8 -1 0.8
v 0.8 -0.7 0.8
v 0.9 -0.7 0.8
v 0.9 -0.4 0.8
v -0.7 -1 0.7
v -0.7 -0.4 0.7
v -0.6 -1.1 0.7
v -0.6 -1 0.7
v -0.6 -0.4 0.7
v -0.6 -0.3 0.7
v -0.5 -1.1 0.7
v -0.5 -1 0.7
v -0.5 -0.4 0.7
v -0.5 -0.3 0.7
v 0 -0.1 0.7
v 0 0 0.7
v 0.2 -0.1 0.7
v 0.2 0 0.7
v 0.7 -1.1 0.7
v 0.7 -1 0.7
v 0.7 -0.4 0.7
v 0.7 -0.3 0.7
v 0.8 -1.1 0.7
v 0.8 -1 0.7
v 0.8 -0.7 0.7
v 0.8 -0.4 0.7
v 0.8 -0.3 0.7
v 0.9 -1 0.7
v 0.9 -0.7 0.7
v -0.8 -1 0.6
v -0.8 -0.4 0.6
v -0.7 -1.1 0.6
v -0.7 -1 0.6
v -0.7 -0.4 0.6
v -0.7 -0.3 0.6
v -0.6 -1.1 0.6
v -0.6 -1 0.6
v -0.6 -0.4 0.6
v -0.6 -0.3 0.6
v -0.1 0.2 0.6
v -0.1 0.5 0.6
v 0 0 0.6
v 0 0.1 0.6
v 0.2 0 0.6
v 0.2 0.1 0.6
v 0.3 0.2 0.6
v 0.3 0.5 0.6
v 0.8 -1.1 0.6
v 0.8 -1 0.6
v 0.8 -0.4 0.6
v 0.8 -0.3 0.6
v 0.9 -1.1 0.6
v 0.9 -1 0.6
v 0.9 -0.4 0.6
v 0.9 -0.3 0.6
v 1 -1 0.6
v 1 -0.4 0.6
v -0.2 0.2 0.5
v -0.2 0.5 0.5
v -0.1 0.2 0.5
v -0.1 0.5 0.5
v -0.1 0.6 0.5
v 0 0.1 0.5
v 0 0.2 0.5
v 0.2 0.1 0.5
v 0.2 0.2 0.5
v 0.3 0.2 0.5
v 0.3 0.5 0.5
v 0.3 0.6 0.5
v 0.4 0.2 0.5
v 0.4 0.5 0.5
v -0.9 -1 0.4
v -0.9 -0.4 0.4
v -0.8 -1.1 0.4
v -0.8 -1 0.4
v -0.8 -0.4 0.4
v -0.8 -0.3 0.4
v -0.7 -1.1 0.4
v -0.7 -1 0.4
v -0.7 -0.4 0.4
v -0.7 -0.3 0.4
v -0.3 0.2 0.4
v -0.3 0.5 0.4
v -0.2 0.2 0.4
v -0.2 0.5 0.4
v -0.2 0.6 0.4
v -0.1 0.5 0.4
v -0.1 0.6 0.4
v 0.3 0.5 0.4
v 0.3 0.6 0.4
v 0.4 0.2 0.4
v 0.4 0.5 0.4
v 0.4 0.6 0.4
v 0.5 0.2 0.4
v 0.5 0.5 0.4
v 0.9 -1.1 0.4
v 0.9 -1 0.4
v 0.9 -0.4 0.4
v 0.9 -0.3 0.4
v 1 -1.1 0.4
v 1 -1 0.4
v 1 -0.4 0.4
v 1 -0.3 0.4
v 1.1 -1 0.4
v 1.1 -0.4 0.4
v -0.4 0.2 0.3
v -0.4 0.5 0.3
v -0.3 0.2 0.3
v -0.3 0.5 0.3
v -0.3 0.6 0.3
v -0.2 0.5 0.3
v -0.2 0.6 0.3
v 0.4 0.5 0.3
v 0.4 0.6 0.3
v 0.5 0.2 0.3
v 0.5 0.5 0.3
v 0.5 0.6 0.3
v 0.6 0.2 0.3
v 0.6 0.5 0.3
v -1.1 -0.8 0.2
v -1.1 -0.6 0.2
v -1 -1 0.2
v -1 -0.8 0.2
v -1 -0.6 0.2
v -1 -0.4 0.2
v -0.9 -1.1 0.2
v -0.9 -1 0.2
v -0.9 -0.4 0.2
v -0.9 -0.3 0.2
v -0.8 -1.1 0.2
v -0.8 -1 0.2
v -0.8 -0.4 0.2
v -0.8 -0.3 0.2
v -0.5 0.3 0.2
v -0.5 0.5 0.2
v -0.4 0.3 0.2
v -0.4 0.5 0.2
v -0.4 0.6 0.2
v -0.3 0.5 0.2
v -0.3 0.6 0.2
v 0.5 0.5 0.2
v 0.5 0.6 0.2
v 0.6 0.2 0.2
v 0.6 0.5 0.2
v 0.6 0.6 0.2
v 0.7 0.2 0.2
v 0.7 0.5 0.2
v 1 -1.1 0.2
v 1 -1 0.2
v 1 -0.4 0.2
v 1 -0.3 0.2
v 1.1 -1.1 0.2
v 1.1 -1 0.2
v 1.1 -0.4 0.2
v 1.1 -0.3 0.2
v 1.2 -1 0.2
v 1.2 -0.4 0.2
v -1.2 -0.8 0.1
v -1.2 -0.6 0.1
v -1.2 0.3 0.1
v -1.2 0.5 0.1
v -1.1 -0.9 0.1
v -1.1 -0.8 0.1
v -1.1 -0.6 0.1
v -1.1 -0.5 0.1
v -1 -0.9 0.1
v -1 -0.8 0.1
v -1 -0.6 0.1
v -1 -0.5 0.1
v -0.8 -0.4 0.1
v -0.8 -0.3 0.1
v -0.8 -0.2 0.1
v -0.7 -0.3 0.1
v -0.7 -0.2 0.1
v -0.7 -0.1 0.1
v -0.6 -0.2 0.1
v -0.6 -0.1 0.1
v -0.6 0 0.1
v -0.5 -0.1 0.1
v -0.5 0 0.1
v -0.5 0.1 0.1
v -0.5 0.2 0.1
v -0.5 0.3 0.1
v -0.5 0.5 0.1
v -0.5 0.6 0.1
v -0.4 0 0.1
v -0.4 0.1 0.1
v -0.4 0.2 0.1
v -0.4 0.3 0.1
v -0.4 0.5 0.1
v -0.4 0.6 0.1
v -0.3 -0.4 0.1
v -0.3 -0.3 0.1
v -0.3 0.1 0.1
v -0.3 0.2 0.1
v 0.5 -0.4 0.1
v 0.5 -0.3 0.1
v 0.5 0.1 0.1
v 0.5 0.2 0.1
v 0.6 0 0.1
v 0.6 0.1 0.1
v 0.6 0.2 0.1
v 0.7 -0.1 0.1
v 0.7 0 0.1
v 0.7 0.1 0.1
v 0.8 -0.2 0.1
v 0.8 -0.1 0.1
v 0.8 0 0.1
v 0.9 -0.3 0.1
v 0.9 -0.2 0.1
v 0.9 -0.1 0.1
v 1 -0.4 0.1
v 1 -0.3 0.1
v 1 -0.2 0.1
v 0.6 0.5 -0.1
v 0.6 0.6 -0.1
v 0.6 1 -0.1
v 0.6 1.1 -0.1
v 0.7 0.5 -0.1
v 0.7 1 -0.1
v 0.7 1.1 -0.1
v -0.8 -1.1 -0.2
v -0.8 -0.3 -0.2
v -0.7 -1.1 -0.2
v -0.7 -0.3 -0.2
v -0.3 0.2 -0.2
v -0.3 0.5 -0.2
v -0.3 0.6 -0.2
v -0.2 0.2 -0.2
v -0.2 0.5 -0.2
v -0.2 0.6 -0.2
v 0.4 0.2 -0.2
v 0.4 0.5 -0.2
v 0.4 0.6 -0.2
v 0.5 0.2 -0.2
v 0.5 0.5 -0.2
v 0.5 0.6 -0.2
v 0.9 -1.1 -0.2
v 0.9 -0.3 -0.2
v 1 -1.1 -0.2
v 1 -0.3 -0.2
v -0.2 0.2 -0.3
v -0.2 0.5 -0.3
v -0.2 0.6 -0.3
v -0.1 0.2 -0.3
v -0.1 0.5 -0.3
v -0.1 0.6 -0.3
v 0.3 0.2 -0.3
v 0.3 0.5 -0.3
v 0.3 0.6 -0.3
v 0.4 0.2 -0.3
v 0.4 0.5 -0.3
v 0.4 0.6 -0.3
v -0.7 -1.1 -0.4
v -0.7 -0.3 -0.4
v -0.6 -1.1 -0.4
v -0.6 -0.3 -0.4
v -0.1 0.2 -0.4
v -0.1 0.5 -0.4
v -0.1 0.6 -0.4
v 0 -0.4 -0.4
v 0 -0.3 -0.4
v 0 0.1 -0.4
v 0 0.2 -0.4
v 0.2 -0.4 -0.4
v 0.2 -0.3 -0.4
v 0.2 0.1 -0.4
v 0.2 0.2 -0.4
v 0.3 0.2 -0.4
v 0.3 0.5 -0.4
v 0.3 0.6 -0.4
v 0.8 -1.1 -0.4
v 0.8 -0.3 -0.4
v 0.9 -1.1 -0.4
v 0.9 -0.3 -0.4
v 0 0 -0.5
v 0 0.1 -0.5
v 0.2 0 -0.5
v 0.2 0.1 -0.5
v -0.6 -1.1 -0.6
v -0.6 -0.3 -0.6
v -0.5 -1.1 -0.6
v -0.5 -0.3 -0.6
v 0 -0.1 -0.6
v 0 0 -0.6
v 0.2 -0.1 -0.6
v 0.2 0 -0.6
v 0.7 -1.1 -0.6
v 0.7 -0.3 -0.6
v 0.8 -1.1 -0.6
v 0.8 -0.3 -0.6
v -0.5 -1.1 -0.7
v -0.5 -0.3 -0.7
v -0.3 -1.1 -0.7
v -0.3 -0.3 -0.7
v 0 -0.2 -0.7
v 0 -0.1 -0.7
v 0.2 -0.2 -0.7
v 0.2 -0.1 -0.7
v 0.5 -1.1 -0.7
v 0.5 -0.3 -0.7
v 0.7 -1.1 -0.7
v 0.7 -0.3 -0.7
v -0.3 -1.1 -0.8
v -0.3 -0.3 -0.8
v -0.1 -1.1 -0.8
v -0.1 -0.3 -0.8
v 0 -0.3 -0.8
v 0 -0.2 -0.8
v 0.2 -0.3 -0.8
v 0.2 -0.2 -0.8
v 0.3 -1.1 -0.8
v 0.3 -0.3 -0.8
v 0.5 -1.1 -0.8
v 0.5 -0.3 -0.8
v -0.1 -1.1 -0.9
v -0.1 -0.3 -0.9
v 0 -0.4 -0.9
v 0 -0.3 -0.9
v 0.2 -0.4 -0.9
v 0.2 -0.3 -0.9
v 0.3 -1.1 -0.9
v 0.3 -0.3 -0.9
v -0.1 -1.1 0.9
v -0.1 -0.3 0.9
v 0 -0.4 0.9
v 0 -0.3 0.9
v 0.2 -0.4 0.9
v 0.2 -0.3 0.9
v 0.3 -1.1 0.9
v 0.3 -0.3 0.9
v -0.3 -1.1 0.8
v -0.3 -0.3 0.8
v -0.1 -1.1 0.8
v -0.1 -0.3 0.8
v 0 -0.3 0.8
v 0 -0.2 0.8
v 0.2 -0.3 0.8
v 0.2 -0.2 0.8
v 0.3 -1.1 0.8
v 0.3 -0.3 0.8
v 0.5 -1.1 0.8
v 0.5 -0.3 0.8
v -0.5 -1.1 0.7
v -0.5 -0.3 0.7
v -0.3 -1.1 0.7
v -0.3 -0.3 0.7
v 0 -0.2 0.7
v 0 -0.1 0.7
v 0.2 -0.2 0.7
v 0.2 -0.1 0.7
v 0.5 -1.1 0.7
v 0.5 -0.3 0.7
v 0.7 -1.1 0.7
v 0.7 -0.3 0.7
v -0.6 -1.1 0.6
v -0.6 -0.3 0.6
v -0.5 -1.1 0.6
v -0.5 -0.3 0.6
v 0 -0.1 0.6
v 0 0 0.6
v 0.2 -0.1 0.6
v 0.2 0 0.6
v 0.7 -1.1 0.6
v 0.7 -0.3 0.6
v 0.8 -1.1 0.6
v 0.8 -0.3 0.6
v 0 0 0.5
v 0 0.1 0.5
v 0.2 0 0.5
v 0.2 0.1 0.5
v -0.7 -1.1 0.4
v -0.7 -0.3 0.4
v -0.6 -1.1 0.4
v -0.6 -0.3 0.4
v -0.1 0.2 0.4
v -0.1 0.5 0.4
v -0.1 0.6 0.4
v 0 -0.4 0.4
v 0 -0.3 0.4
v 0 0.1 0.4
v 0 0.2 0.4
v 0.2 -0.4 0.4
v 0.2 -0.3 0.4
v 0.2 0.1 0.4
v 0.2 0.2 0.4
v 0.3 0.2 0.4
v 0.3 0.5 0.4
v 0.3 0.6 0.4
v 0.8 -1.1 0.4
v 0.8 -0.3 0.4
v 0.9 -1.1 0.4
v 0.9 -0.3 0.4
v -0.2 0.2 0.3
v -0.2 0.5 0.3
v -0.2 0.6 0.3
v -0.1 0.2 0.3
v -0.1 0.5 0.3
v -0.1 0.6 0.3
v 0.3 0.2 0.3
v 0.3 0.5 0.3
v 0.3 0.6 0.3
v 0.4 0.2 0.3
v 0.4 0.5 0.3
v 0.4 0.6 0.3
v -0.8 -1.1 0.2
v -0.8 -0.3 0.2
v -0.7 -1.1 0.2
v -0.7 -0.3 0.2
v -0.3 0.2 0.2
v -0.3 0.5 0.2
v -0.3 0.6 0.2
v -0.2 0.2 0.2
v -0.2 0.5 0.2
v -0.2 0.6 0.2
v 0.4 0.2 0.2
v 0.4 0.5 0.2
v 0.4 0.6 0.2
v 0.5 0.2 0.2
v 0.5 0.5 0.2
v 0.5 0.6 0.2
v 0.9 -1.1 0.2
v 0.9 -0.3 0.2
v 1 -1.1 0.2
v 1 -0.3 0.2
v -1.2 -0.8 -0.1
v -1.2 -0.6 -0.1
v -1.2 0.3 -0.1
v -1.2 0.5 -0.1
v -1.1 -0.9 -0.1
v -1.1 -0.8 -0.1
v -1.1 -0.6 -0.1
v -1.1 -0.5 -0.1
v -1 -0.9 -0.1
v -1 -0.8 -0.1
v -1 -0.6 -0.1
v -1 -0.5 -0.1
v -0.8 -0.4 -0.1
v -0.8 -0.3 -0.1
v -0.8 -0.2 -0.1
v -0.7 -0.3 -0.1
v -0.7 -0.2 -0.1
v -0.7 -0.1 -0.1
v -0.6 -0.2 -0.1
v -0.6 -0.1 -0.1
v -0.6 0 -0.1
v -0.5 -0.1 -0.1
v -0.5 0 -0.1
v -0.5 0.1 -0.1
v -0.5 0.2 -0.1
v -0.5 0.3 -0.1
v -0.5 0.5 -0.1
v -0.5 0.6 -0.1
v -0.4 0 -0.1
v -0.4 0.1 -0.1
v -0.4 0.2 -0.1
v -0.4 0.3 -0.1
v -0.4 0.5 -0.1
v -0.4 0.6 -0.1
v -0.3 -0.4 -0.1
v -0.3 -0.3 -0.1
v -0.3 0.1 -0.1
v -0.3 0.2 -0.1
v 0.5 -0.4 -0.1
v 0.5 -0.3 -0.1
v 0.5 0.1 -0.1
v 0.5 0.2 -0.1
v 0.6 0 -0.1
v 0.6 0.1 -0.1
v 0.6 0.2 -0.1
v 0.7 -0.1 -0.1
v 0.7 0 -0.1
v 0.7 0.1 -0.1
v 0.8 -0.2 -0.1
v 0.8 -0.1 -0.1
v 0.8 0 -0.1
v 0.9 -0.3 -0.1
v 0.9 -0.2 -0.1
v 0.9 -0.1 -0.1
v 1 -0.4 -0.1
v 1 -0.3 -0.1
v 1 -0.2 -0.1
v -1.1 -0.8 -0.2
v -1.1 -0.6 -0.2
v -1 -1 -0.2
v -1 -0.8 -0.2
v -1 -0.6 -0.2
v -1 -0.4 -0.2
v -0.9 -1.1 -0.2
v -0.9 -1 -0.2
v -0.9 -0.4 -0.2
v -0.9 -0.3 -0.2
v -0.8 -1.1 -0.2
v -0.8 -1 -0.2
v -0.8 -0.4 -0.2
v -0.8 -0.3 -0.2
v -0.5 0.3 -0.2
v -0.5 0.5 -0.2
v -0.4 0.3 -0.2
v -0.4 0.5 -0.2
v -0.4 0.6 -0.2
v -0.3 0.5 -0.2
v -0.3 0.6 -0.2
v 0.5 0.5 -0.2
v 0.5 0.6 -0.2
v 0.6 0.2 -0.2
v 0.6 0.5 -0.2
v 0.6 0.6 -0.2
v 0.6 1 -0.2
v 0.6 1.1 -0.2
v 0.7 0.2 -0.2
v 0.7 1 -0.2
v 0.7 1.1 -0.2
v 1 -1.1 -0.2
v 1 -1 -0.2
v 1 -0.4 -0.2
v 1 -0.3 -0.2
v 1.1 -1.1 -0.2
v 1.1 -1 -0.2
v 1.1 -0.4 -0.2
v 1.1 -0.3 -0.2
v 1.2 -1 -0.2
v 1.2 -0.4 -0.2
v -0.4 0.2 -0.3
v -0.4 0.5 -0.3
v -0.3 0.2 -0.3
v -0.3 0.5 -0.3
v -0.3 0.6 -0.3
v -0.2 0.5 -0.3
v -0.2 0.6 -0.3
v 0.4 0.5 -0.3
v 0.4 0.6 -0.3
v 0.5 0.2 -0.3
v 0.5 0.5 -0.3
v 0.5 0.6 -0.3
v 0.6 0.2 -0.3
v 0.6 0.5 -0.3
v -0.9 -1 -0.4
v -0.9 -0.4 -0.4
v -0.8 -1.1 -0.4
v -0.8 -1 -0.4
v -0.8 -0.4 -0.4
v -0.8 -0.3 -0.4
v -0.7 -1.1 -0.4
v -0.7 -1 -0.4
v -0.7 -0.4 -0.4
v -0.7 -0.3 -0.4
v -0.3 0.2 -0.4
v -0.3 0.5 -0.4
v -0.2 0.2 -0.4
v -0.2 0.5 -0.4
v -0.2 0.6 -0.4
v -0.1 0.5 -0.4
v -0.1 0.6 -0.4
v 0.3 0.5 -0.4
v 0.3 0.6 -0.4
v 0.4 0.2 -0.4
v 0.4 0.5 -0.4
v 0.4 0.6 -0.4
v 0.5 0.2 -0.4
v 0.5 0.5 -0.4
v 0.9 -1.1 -0.4
v 0.9 -1 -0.4
v 0.9 -0.4 -0.4
v 0.9 -0.3 -0.4
v 1 -1.1 -0.4
v 1 -1 -0.4
v 1 -0.4 -0.4
v 1 -0.3 -0.4
v 1.1 -1 -0.4
v 1.1 -0.4 -0.4
v -0.2 0.2 -0.5
v -0.2 0.5 -0.5
v -0.1 0.2 -0.5
v -0.1 0.5 -0.5
v -0.1 0.6 -0.5
v 0 0.1 -0.5
v 0 0.2 -0.5
v 0.2 0.1 -0.5
v 0.2 0.2 -0.5
v 0.3 0.2 -0.5
v 0.3 0.5 -0.5
v 0.3 0.6 -0.5
v 0.4 0.2 -0.5
v 0.4 0.5 -0.5
v -0.8 -1 -0.6
v -0.8 -0.4 -0.6
v -0.7 -1.1 -0.6
v -0.7 -1 -0.6
v -0.7 -0.4 -0.6
v -0.7 -0.3 -0.6
v -0.6 -1.1 -0.6
v -0.6 -1 -0.6
v -0.6 -0.4 -0.6
v -0.6 -0.3 -0.6
v -0.1 0.2 -0.6
v -0.1 0.5 -0.6
v 0 0 -0.6
v 0 0.1 -0.6
v 0.2 0 -0.6
v 0.2 0.1 -0.6
v 0.3 0.2 -0.6
v 0.3 0.5 -0.6
v 0.8 -1.1 -0.6
v 0.8 -1 -0.6
v 0.8 -0.4 -0.6
v 0.8 -0.3 -0.6
v 0.9 -1.1 -0.6
v 0.9 -1 -0.6
v 0.9 -0.4 -0.6
v 0.9 -0.3 -0.6
v 1 -1 -0.6
v 1 -0.4 -0.6
v -0.7 -1 -0.7
v -0.7 -0.4 -0.7
v -0.6 -1.1 -0.7
v -0.6 -1 -0.7
v -0.6 -0.4 -0.7
v -0.6 -0.3 -0.7
v -0.5 -1.1 -0.7
v -0.5 -1 -0.7
v -0.5 -0.4 -0.7
v -0.5 -0.3 -0.7
v 0 -0.1 -0.7
v 0 0 -0.7
v 0.2 -0.1 -0.7
v 0.2 0 -0.7
v 0.7 -1.1 -0.7
v 0.7 -1 -0.7
v 0.7 -0.4 -0.7
v 0.7 -0.3 -0.7
v 0.8 -1.1 -0.7
v 0.8 -1 -0.7
v 0.8 -0.4 -0.7
v 0.8 -0.3 -0.7
v 0.9 -1 -0.7
v 0.9 -0.4 -0.7
v -0.6 -1 -0.8
v -0.6 -0.4 -0.8
v -0.5 -1.1 -0.8
v -0.5 -1 -0.8
v -0.5 -0.4 -0.8
v -0.5 -0.3 -0.8
v -0.3 -1.1 -0.8
v -0.3 -1 -0.8
v -0.3 -0.4 -0.8
v -0.3 -0.3 -0.8
v 0 -0.2 -0.8
v 0 -0.1 -0.8
v 0.2 -0.2 -0.8
v 0.2 -0.1 -0.8
v 0.5 -1.1 -0.8
v 0.5 -1 -0.8
v 0.5 -0.4 -0.8
v 0.5 -0.3 -0.8
v 0.7 -1.1 -0.8
v 0.7 -1 -0.8
v 0.7 -0.4 -0.8
v 0.7 -0.3 -0.8
v 0.8 -1 -0.8
v 0.8 -0.4 -0.8
v -0.5 -1 -0.9
v -0.5 -0.4 -0.9
v -0.3 -1.1 -0.9
v -0.3 -1 -0.9
v -0.3 -0.4 -0.9
v -0.3 -0.3 -0.9
v -0.1 -1.1 -0.9
v -0.1 -1 -0.9
v -0.1 -0.4 -0.9
v -0.1 -0.3 -0.9
v 0 -0.3 -0.9
v 0 -0.2 -0.9
v 0.2 -0.3 -0.9
v 0.2 -0.2 -0.9
v 0.3 -1.1 -0.9
v 0.3 -1 -0.9
v 0.3 -0.4 -0.9
v 0.3 -0.3 -0.9
v 0.5 -1.1 -0.9
v 0.5 -1 -0.9
v 0.5 -0.4 -0.9
v 0.5 -0.3 -0.9
v 0.7 -1 -0.9
v 0.7 -0.4 -0.9
v -0.3 -1 -1
v -0.3 -0.4 -1
v -0.1 -1.1 -1
v -0.1 -1 -1
v -0.1 -0.4 -1
v -0.1 -0.3 -1
v 0.3 -1.1 -1
v 0.3 -1 -1
v 0.3 -0.4 -1
v 0.3 -0.3 -1
v 0.5 -1 -1
v 0.5 -0.4 -1
v -0.1 -1 -1.1
v -0.1 -0.8 -1.1
v -0.1 -0.6 -1.1
v -0.1 -0.4 -1.1
v 0 -0.9 -1.1
v 0 -0.8 -1.1
v 0 -0.6 -1.1
v 0 -0.5 -1.1
v 0.2 -0.9 -1.1
v 0.2 -0.8 -1.1
v 0.2 -0.6 -1.1
v 0.2 -0.5 -1.1
v 0.3 -1 -1.1
v 0.3 -0.8 -1.1
v 0.3 -0.6 -1.1
v 0.3 -0.4 -1.1
v -0.1 -0.8 -1.2
v -0.1 -0.6 -1.2
v 0 -0.9 -1.2
v 0 -0.8 -1.2
v 0 -0.6 -1.2
v 0 -0.5 -1.2
v 0.2 -0.9 -1.2
v 0.2 -0.8 -1.2
v 0.2 -0.6 -1.2
v 0.2 -0.5 -1.2
v 0.3 -0.8 -1.2
v 0.3 -0.6 -1.2
v 0 -0.8 -1.6
v 0 -0.6 -1.6
v 0.2 -0.8 -1.6
v 0.2 -0.6 -1.6
v -0.1 -1.1 1
v 0.3 -1.1 1
v -0.3 -1.1 0.9
v -0.1 -1.1 0.9
v 0.3 -1.1 0.9
v 0.5 -1.1 0.9
v -0.5 -1.1 0.8
v -0.3 -1.1 0.8
v -0.1 -1.1 0.8
v 0.3 -1.1 0.8
v 0.5 -1.1 0.8
v 0.7 -1.1 0.8
v -0.6 -1.1 0.7
v -0.5 -1.1 0.7
v -0.3 -1.1 0.7
v 0.5 -1.1 0.7
v 0.7 -1.1 0.7
v 0.8 -1.1 0.7
v -0.7 -1.1 0.6
v -0.6 -1.1 0.6
v -0.5 -1.1 0.6
v 0.7 -1.1 0.6
v 0.8 -1.1 0.6
v 0.9 -1.1 0.6
v -0.8 -1.1 0.4
v -0.7 -1.1 0.4
v -0.6 -1.1 0.4
v 0.8 -1.1 0.4
v 0.9 -1.1 0.4
v 1 -1.1 0.4
v -0.9 -1.1 0.2
v -0.8 -1.1 0.2
v -0.7 -1.1 0.2
v 0.9 -1.1 0.2
v 1 -1.1 0.2
v 1.1 -1.1 0.2
v -0.9 -1.1 -0.2
v -0.8 -1.1 -0.2
v -0.7 -1.1 -0.2
v 0.9 -1.1 -0.2
v 1 -1.1 -0.2
v 1.1 -1.1 -0.2
v -0.8 -1.1 -0.4
v -0.7 -1.1 -0.4
v -0.6 -1.1 -0.4
v 0.8 -1.1 -0.4
v 0.9 -1.1 -0.4
v 1 -1.1 -0.4
v -0.7 -1.1 -0.6
v -0.6 -1.1 -0.6
v -0.5 -1.1 -0.6
v 0.7 -1.1 -0.6
v 0.8 -1.1 -0.6
v 0.9 -1.1 -0.6
v -0.6 -1.1 -0.7
v -0.5 -1.1 -0.7
v -0.3 -1.1 -0.7
v 0.5 -1.1 -0.7
v 0.7 -1.1 -0.7
v 0.8 -1.1 -0.7
v -0.5 -1.1 -0.8
v -0.3 -1.1 -0.8
v -0.1 -1.1 -0.8
v 0.3 -1.1 -0.8
v 0.5 -1.1 -0.8
v 0.7 -1.1 -0.8
v -0.3 -1.1 -0.9
v -0.1 -1.1 -0.9
v 0.3 -1.1 -0.9
v 0.5 -1.1 -0.9
v -0.1 -1.1 -1
v 0.3 -1.1 -1
v -0.1 -1 1.1
v 0.3 -1 1.1
v -0.3 -1 1
v -0.1 -1 1
v 0.3 -1 1
v 0.5 -1 1
v -0.5 -1 0.9
v -0.3 -1 0.9
v -0.1 -1 0.9
v 0.3 -1 0.9
v 0.5 -1 0.9
v 0.7 -1 0.9
v -0.6 -1 0.8
v -0.5 -1 0.8
v -0.3 -1 0.8
v 0.5 -1 0.8
v 0.7 -1 0.8
v 0.8 -1 0.8
v -0.7 -1 0.7
v -0.6 -1 0.7
v -0.5 -1 0.7
v 0.7 -1 0.7
v 0.8 -1 0.7
v 0.9 -1 0.7
v -0.8 -1 0.6
v -0.7 -1 0.6
v -0.6 -1 0.6
v 0.8 -1 0.6
v 0.9 -1 0.6
v 1 -1 0.6
v -0.9 -1 0.4
v -0.8 -1 0.4
v -0.7 -1 0.4
v 0.9 -1 0.4
v 1 -1 0.4
v 1.1 -1 0.4
v -1 -1 0.2
v -0.9 -1 0.2
v -0.8 -1 0.2
v 1 -1 0.2
v 1.1 -1 0.2
v 1.2 -1 0.2
v -1 -1 -0.2
v -0.9 -1 -0.2
v -0.8 -1 -0.2
v 1 -1 -0.2
v 1.1 -1 -0.2
v 1.2 -1 -0.2
v -0.9 -1 -0.4
v -0.8 -1 -0.4
v -0.7 -1 -0.4
v 0.9 -1 -0.4
v 1 -1 -0.4
v 1.1 -1 -0.4
v -0.8 -1 -0.6
v -0.7 -1 -0.6
v -0.6 -1 -0.6
v 0.8 -1 -0.6
v 0.9 -1 -0.6
v 1 -1 -0.6
v -0.7 -1 -0.7
v -0.6 -1 -0.7
v -0.5 -1 -0.7
v 0.7 -1 -0.7
v 0.8 -1 -0.7
v 0.9 -1 -0.7
v -0.6 -1 -0.8
v -0.5 -1 -0.8
v -0.3 -1 -0.8
v 0.5 -1 -0.8
v 0.7 -1 -0.8
v 0.8 -1 -0.8
v -0.5 -1 -0.9
v -0.3 -1 -0.9
v -0.1 -1 -0.9
v 0.3 -1 -0.9
v 0.5 -1 -0.9
v 0.7 -1 -0.9
v -0.3 -1 -1
v -0.1 -1 -1
v 0.3 -1 -1
v 0.5 -1 -1
v -0.1 -1 -1.1
v 0.3 -1 -1.1
v 0 -0.9 1.2
v 0.2 -0.9 1.2
v 0 -0.9 1.1
v 0.2 -0.9 1.1
v -1.1 -0.9 0.1
v -1 -0.9 0.1
v -1.1 -0.9 -0.1
v -1 -0.9 -0.1
v 0 -0.9 -1.1
v 0.2 -0.9 -1.1
v 0 -0.9 -1.2
v 0.2 -0.9 -1.2
v 0 -0.8 1.6
v 0.2 -0.8 1.6
v -0.1 -0.8 1.2
v 0 -0.8 1.2
v 0.2 -0.8 1.2
v 0.3 -0.8 1.2
v -0.1 -0.8 1.1
v 0 -0.8 1.1
v 0.2 -0.8 1.1
v 0.3 -0.8 1.1
v -1.1 -0.8 0.2
v -1 -0.8 0.2
v -1.2 -0.8 0.1
v -1.1 -0.8 0.1
v -1 -0.8 0.1
v -1.2 -0.8 -0.1
v -1.1 -0.8 -0.1
v -1 -0.8 -0.1
v -1.1 -0.8 -0.2
v -1 -0.8 -0.2
v -0.1 -0.8 -1.1
v 0 -0.8 -1.1
v 0.2 -0.8 -1.1
v 0.3 -0.8 -1.1
v -0.1 -0.8 -1.2
v 0 -0.8 -1.2
v 0.2 -0.8 -1.2
v 0.3 -0.8 -1.2
v 0 -0.8 -1.6
v 0.2 -0.8 -1.6
v 0.8 -0.7 0.8
v 0.9 -0.7 0.8
v 0.8 -0.7 0.7
v 0.9 -0.7 0.7
v 0 -0.4 0.9
v 0.2 -0.4 0.9
v 0 -0.4 0.4
v 0.2 -0.4 0.4
v -0.8 -0.4 0.1
v -0.3 -0.4 0.1
v 0.5 -0.4 0.1
v 1 -0.4 0.1
v -0.8 -0.4 -0.1
v -0.3 -0.4 -0.1
v 0.5 -0.4 -0.1
v 1 -0.4 -0.1
v 0 -0.4 -0.4
v 0.2 -0.4 -0.4
v 0 -0.4 -0.9
v 0.2 -0.4 -0.9
v 0 -0.2 0.8
v 0.2 -0.2 0.8
v 0 -0.2 0.7
v 0.2 -0.2 0.7
v -0.7 -0.2 0.1
v -0.6 -0.2 0.1
v 0.8 -0.2 0.1
v 0.9 -0.2 0.1
v -0.7 -0.2 -0.1
v -0.6 -0.2 -0.1
v 0.8 -0.2 -0.1
v 0.9 -0.2 -0.1
v 0 -0.2 -0.7
v 0.2 -0.2 -0.7
v 0 -0.2 -0.8
v 0.2 -0.2 -0.8
v 0 -0.1 0.7
v 0.2 -0.1 0.7
v 0 -0.1 0.6
v 0.2 -0.1 0.6
v -0.6 -0.1 0.1
v -0.5 -0.1 0.1
v 0.7 -0.1 0.1
v 0.8 -0.1 0.1
v -0.6 -0.1 -0.1
v -0.5 -0.1 -0.1
v 0.7 -0.1 -0.1
v 0.8 -0.1 -0.1
v 0 -0.1 -0.6
v 0.2 -0.1 -0.6
v 0 -0.1 -0.7
v 0.2 -0.1 -0.7
v 0 0 0.6
v 0.2 0 0.6
v 0 0 0.5
v 0.2 0 0.5
v -0.5 0 0.1
v -0.4 0 0.1
v 0.6 0 0.1
v 0.7 0 0.1
v -0.5 0 -0.1
v -0.4 0 -0.1
v 0.6 0 -0.1
v 0.7 0 -0.1
v 0 0 -0.5
v 0.2 0 -0.5
v 0 0 -0.6
v 0.2 0 -0.6
v 0 0.1 0.5
v 0.2 0.1 0.5
v 0 0.1 0.4
v 0.2 0.1 0.4
v -0.4 0.1 0.1
v -0.3 0.1 0.1
v 0.5 0.1 0.1
v 0.6 0.1 0.1
v -0.4 0.1 -0.1
v -0.3 0.1 -0.1
v 0.5 0.1 -0.1
v 0.6 0.1 -0.1
v 0 0.1 -0.4
v 0.2 0.1 -0.4
v 0 0.1 -0.5
v 0.2 0.1 -0.5
v -0.1 0.2 0.6
v 0.3 0.2 0.6
v -0.2 0.2 0.5
v -0.1 0.2 0.5
v 0 0.2 0.5
v 0.2 0.2 0.5
v 0.3 0.2 0.5
v 0.4 0.2 0.5
v -0.3 0.2 0.4
v -0.2 0.2 0.4
v -0.1 0.2 0.4
v 0 0.2 0.4
v 0.2 0.2 0.4
v 0.3 0.2 0.4
v 0.4 0.2 0.4
v 0.5 0.2 0.4
v -0.4 0.2 0.3
v -0.3 0.2 0.3
v -0.2 0.2 0.3
v -0.1 0.2 0.3
v 0.3 0.2 0.3
v 0.4 0.2 0.3
v 0.5 0.2 0.3
v 0.6 0.2 0.3
v -0.3 0.2 0.2
v -0.2 0.2 0.2
v 0.4 0.2 0.2
v 0.5 0.2 0.2
v 0.6 0.2 0.2
v 0.7 0.2 0.2
v -0.5 0.2 0.1
v -0.4 0.2 0.1
v -0.3 0.2 0.1
v 0.5 0.2 0.1
v 0.6 0.2 0.1
v -0.5 0.2 -0.1
v -0.4 0.2 -0.1
v -0.3 0.2 -0.1
v 0.5 0.2 -0.1
v 0.6 0.2 -0.1
v -0.3 0.2 -0.2
v -0.2 0.2 -0.2
v 0.4 0.2 -0.2
v 0.5 0.2 -0.2
v 0.6 0.2 -0.2
v 0.7 0.2 -0.2
v -0.4 0.2 -0.3
v -0.3 0.2 -0.3
v -0.2 0.2 -0.3
v -0.1 0.2 -0.3
v 0.3 0.2 -0.3
v 0.4 0.2 -0.3
v 0.5 0.2 -0.3
v 0.6 0.2 -0.3
v -0.3 0.2 -0.4
v -0.2 0.2 -0.4
v -0.1 0.2 -0.4
v 0 0.2 -0.4
v 0.2 0.2 -0.4
v 0.3 0.2 -0.4
v 0.4 0.2 -0.4
v 0.5 0.2 -0.4
v -0.2 0.2 -0.5
v -0.1 0.2 -0.5
v 0 0.2 -0.5
v 0.2 0.2 -0.5
v 0.3 0.2 -0.5
v 0.4 0.2 -0.5
v -0.1 0.2 -0.6
v 0.3 0.2 -0.6
v -0.5 0.3 0.2
v -0.4 0.3 0.2
v -1.2 0.3 0.1
v -0.5 0.3 0.1
v -0.4 0.3 0.1
v -1.2 0.3 -0.1
v -0.5 0.3 -0.1
v -0.4 0.3 -0.1
v -0.5 0.3 -0.2
v -0.4 0.3 -0.2
v 0 -0.6 1.6
v 0.2 -0.6 1.6
v -0.1 -0.6 1.2
v 0 -0.6 1.2
v 0.2 -0.6 1.2
v 0.3 -0.6 1.2
v -0.1 -0.6 1.1
v 0 -0.6 1.1
v 0.2 -0.6 1.1
v 0.3 -0.6 1.1
v -1.1 -0.6 0.2
v -1 -0.6 0.2
v -1.2 -0.6 0.1
v -1.1 -0.6 0.1
v -1 -0.6 0.1
v -1.2 -0.6 -0.1
v -1.1 -0.6 -0.1
v -1 -0.6 -0.1
v -1.1 -0.6 -0.2
v -1 -0.6 -0.2
v -0.1 -0.6 -1.1
v 0 -0.6 -1.1
v 0.2 -0.6 -1.1
v 0.3 -0.6 -1.1
v -0.1 -0.6 -1.2
v 0 -0.6 -1.2
v 0.2 -0.6 -1.2
v 0.3 -0.6 -1.2
v 0 -0.6 -1.6
v 0.2 -0.6 -1.6
v 0 -0.5 1.2
v 0.2 -0.5 1.2
v 0 -0.5 1.1
v 0.2 -0.5 1.1
v -1.1 -0.5 0.1
v -1 -0.5 0.1
v -1.1 -0.5 -0.1
v -1 -0.5 -0.1
v 0 -0.5 -1.1
v 0.2 -0.5 -1.1
v 0 -0.5 -1.2
v 0.2 -0.5 -1.2
v -0.1 -0.4 1.1
v 0.3 -0.4 1.1
v -0.3 -0.4 1
v -0.1 -0.4 1
v 0.3 -0.4 1
v 0.5 -0.4 1
v -0.5 -0.4 0.9
v -0.3 -0.4 0.9
v -0.1 -0.4 0.9
v 0.3 -0.4 0.9
v 0.5 -0.4 0.9
v 0.7 -0.4 0.9
v -0.6 -0.4 0.8
v -0.5 -0.4 0.8
v -0.3 -0.4 0.8
v 0.5 -0.4 0.8
v 0.7 -0.4 0.8
v 0.9 -0.4 0.8
v -0.7 -0.4 0.7
v -0.6 -0.4 0.7
v -0.5 -0.4 0.7
v 0.7 -0.4 0.7
v 0.8 -0.4 0.7
v -0.8 -0.4 0.6
v -0.7 -0.4 0.6
v -0.6 -0.4 0.6
v 0.8 -0.4 0.6
v 0.9 -0.4 0.6
v 1 -0.4 0.6
v -0.9 -0.4 0.4
v -0.8 -0.4 0.4
v -0.7 -0.4 0.4
v 0.9 -0.4 0.4
v 1 -0.4 0.4
v 1.1 -0.4 0.4
v -1 -0.4 0.2
v -0.9 -0.4 0.2
v -0.8 -0.4 0.2
v 1 -0.4 0.2
v 1.1 -0.4 0.2
v 1.2 -0.4 0.2
v -1 -0.4 -0.2
v -0.9 -0.4 -0.2
v -0.8 -0.4 -0.2
v 1 -0.4 -0.2
v 1.1 -0.4 -0.2
v 1.2 -0.4 -0.2
v -0.9 -0.4 -0.4
v -0.8 -0.4 -0.4
v -0.7 -0.4 -0.4
v 0.9 -0.4 -0.4
v 1 -0.4 -0.4
v 1.1 -0.4 -0.4
v -0.8 -0.4 -0.6
v -0.7 -0.4 -0.6
v -0.6 -0.4 -0.6
v 0.8 -0.4 -0.6
v 0.9 -0.4 -0.6
v 1 -0.4 -0.6
v -0.7 -0.4 -0.7
v -0.6 -0.4 -0.7
v -0.5 -0.4 -0.7
v 0.7 -0.4 -0.7
v 0.8 -0.4 -0.7
v 0.9 -0.4 -0.7
v -0.6 -0.4 -0.8
v -0.5 -0.4 -0.8
v -0.3 -0.4 -0.8
v 0.5 -0.4 -0.8
v 0.7 -0.4 -0.8
v 0.8 -0.4 -0.8
v -0.5 -0.4 -0.9
v -0.3 -0.4 -0.9
v -0.1 -0.4 -0.9
v 0.3 -0.4 -0.9
v 0.5 -0.4 -0.9
v 0.7 -0.4 -0.9
v -0.3 -0.4 -1
v -0.1 -0.4 -1
v 0.3 -0.4 -1
v 0.5 -0.4 -1
v -0.1 -0.4 -1.1
v 0.3 -0.4 -1.1
v -0.1 -0.3 1
v 0.3 -0.3 1
v -0.3 -0.3 0.9
v -0.1 -0.3 0.9
v 0 -0.3 0.9
v 0.2 -0.3 0.9
v 0.3 -0.3 0.9
v 0.5 -0.3 0.9
v -0.5 -0.3 0.8
v -0.3 -0.3 0.8
v -0.1 -0.3 0.8
v 0 -0.3 0.8
v 0.2 -0.3 0.8
v 0.3 -0.3 0.8
v 0.5 -0.3 0.8
v 0.7 -0.3 0.8
v -0.6 -0.3 0.7
v -0.5 -0.3 0.7
v -0.3 -0.3 0.7
v 0.5 -0.3 0.7
v 0.7 -0.3 0.7
v 0.8 -0.3 0.7
v -0.7 -0.3 0.6
v -0.6 -0.3 0.6
v -0.5 -0.3 0.6
v 0.7 -0.3 0.6
v 0.8 -0.3 0.6
v 0.9 -0.3 0.6
v -0.8 -0.3 0.4
v -0.7 -0.3 0.4
v -0.6 -0.3 0.4
v 0 -0.3 0.4
v 0.2 -0.3 0.4
v 0.8 -0.3 0.4
v 0.9 -0.3 0.4
v 1 -0.3 0.4
v -0.9 -0.3 0.2
v -0.8 -0.3 0.2
v -0.7 -0.3 0.2
v 0.9 -0.3 0.2
v 1 -0.3 0.2
v 1.1 -0.3 0.2
v -0.8 -0.3 0.1
v -0.7 -0.3 0.1
v -0.3 -0.3 0.1
v 0.5 -0.3 0.1
v 0.9 -0.3 0.1
v 1 -0.3 0.1
v -0.8 -0.3 -0.1
v -0.7 -0.3 -0.1
v -0.3 -0.3 -0.1
v 0.5 -0.3 -0.1
v 0.9 -0.3 -0.1
v 1 -0.3 -0.1
v -0.9 -0.3 -0.2
v -0.8 -0.3 -0.2
v -0.7 -0.3 -0.2
v 0.9 -0.3 -0.2
v 1 -0.3 -0.2
v 1.1 -0.3 -0.2
v -0.8 -0.3 -0.4
v -0.7 -0.3 -0.4
v -0.6 -0.3 -0.4
v 0 -0.3 -0.4
v 0.2 -0.3 -0.4
v 0.8 -0.3 -0.4
v 0.9 -0.3 -0.4
v 1 -0.3 -0.4
v -0.7 -0.3 -0.6
v -0.6 -0.3 -0.6
v -0.5 -0.3 -0.6
v 0.7 -0.3 -0.6
v 0.8 -0.3 -0.6
v 0.9 -0.3 -0.6
v -0.6 -0.3 -0.7
v -0.5 -0.3 -0.7
v -0.3 -0.3 -0.7
v 0.5 -0.3 -0.7
v 0.7 -0.3 -0.7
v 0.8 -0.3 -0.7
v -0.5 -0.3 -0.8
v -0.3 -0.3 -0.8
v -0.1 -0.3 -0.8
v 0 -0.3 -0.8
v 0.2 -0.3 -0.8
v 0.3 -0.3 -0.8
v 0.5 -0.3 -0.8
v 0.7 -0.3 -0.8
v -0.3 -0.3 -0.9
v -0.1 -0.3 -0.9
v 0 -0.3 -0.9
v 0.2 -0.3 -0.9
v 0.3 -0.3 -0.9
v 0.5 -0.3 -0.9
v -0.1 -0.3 -1
v 0.3 -0.3 -1
v 0 -0.2 0.9
v 0.2 -0.2 0.9
v 0 -0.2 0.8
v 0.2 -0.2 0.8
v -0.8 -0.2 0.1
v -0.7 -0.2 0.1
v 0.9 -0.2 0.1
v 1 -0.2 0.1
v -0.8 -0.2 -0.1
v -0.7 -0.2 -0.1
v 0.9 -0.2 -0.1
v 1 -0.2 -0.1
v 0 -0.2 -0.8
v 0.2 -0.2 -0.8
v 0 -0.2 -0.9
v 0.2 -0.2 -0.9
v 0 -0.1 0.8
v 0.2 -0.1 0.8
v 0 -0.1 0.7
v 0.2 -0.1 0.7
v -0.7 -0.1 0.1
v -0.6 -0.1 0.1
v 0.8 -0.1 0.1
v 0.9 -0.1 0.1
v -0.7 -0.1 -0.1
v -0.6 -0.1 -0.1
v 0.8 -0.1 -0.1
v 0.9 -0.1 -0.1
v 0 -0.1 -0.7
v 0.2 -0.1 -0.7
v 0 -0.1 -0.8
v 0.2 -0.1 -0.8
v 0 0 0.7
v 0.2 0 0.7
v 0 0 0.6
v 0.2 0 0.6
v -0.6 0 0.1
v -0.5 0 0.1
v 0.7 0 0.1
v 0.8 0 0.1
v -0.6 0 -0.1
v -0.5 0 -0.1
v 0.7 0 -0.1
v 0.8 0 -0.1
v 0 0 -0.6
v 0.2 0 -0.6
v 0 0 -0.7
v 0.2 0 -0.7
v 0 0.1 0.6
v 0.2 0.1 0.6
v 0 0.1 0.5
v 0.2 0.1 0.5
v -0.5 0.1 0.1
v -0.4 0.1 0.1
v 0.6 0.1 0.1
v 0.7 0.1 0.1
v -0.5 0.1 -0.1
v -0.4 0.1 -0.1
v 0.6 0.1 -0.1
v 0.7 0.1 -0.1
v 0 0.1 -0.5
v 0.2 0.1 -0.5
v 0 0.1 -0.6
v 0.2 0.1 -0.6
v -0.1 0.5 0.6
v 0.3 0.5 0.6
v -0.2 0.5 0.5
v -0.1 0.5 0.5
v 0.3 0.5 0.5
v 0.4 0.5 0.5
v -0.3 0.5 0.4
v -0.2 0.5 0.4
v -0.1 0.5 0.4
v 0.3 0.5 0.4
v 0.4 0.5 0.4
v 0.5 0.5 0.4
v -0.4 0.5 0.3
v -0.3 0.5 0.3
v -0.2 0.5 0.3
v 0.4 0.5 0.3
v 0.5 0.5 0.3
v 0.6 0.5 0.3
v -0.5 0.5 0.2
v -0.4 0.5 0.2
v -0.3 0.5 0.2
v 0.5 0.5 0.2
v 0.6 0.5 0.2
v 0.7 0.5 0.2
v -1.2 0.5 0.1
v -0.5 0.5 0.1
v -0.4 0.5 0.1
v -1.2 0.5 -0.1
v -0.5 0.5 -0.1
v -0.4 0.5 -0.1
v 0.6 0.5 -0.1
v 0.7 0.5 -0.1
v -0.5 0.5 -0.2
v -0.4 0.5 -0.2
v -0.3 0.5 -0.2
v 0.5 0.5 -0.2
v 0.6 0.5 -0.2
v -0.4 0.5 -0.3
v -0.3 0.5 -0.3
v -0.2 0.5 -0.3
v 0.4 0.5 -0.3
v 0.5 0.5 -0.3
v 0.6 0.5 -0.3
v -0.3 0.5 -0.4
v -0.2 0.5 -0.4
v -0.1 0.5 -0.4
v 0.3 0.5 -0.4
v 0.4 0.5 -0.4
v 0.5 0.5 -0.4
v -0.2 0.5 -0.5
v -0.1 0.5 -0.5
v 0.3 0.5 -0.5
v 0.4 0.5 -0.5
v -0.1 0.5 -0.6
v 0.3 0.5 -0.6
v -0.1 0.6 0.5
v 0.3 0.6 0.5
v -0.2 0.6 0.4
v -0.1 0.6 0.4
v 0.3 0.6 0.4
v 0.4 0.6 0.4
v -0.3 0.6 0.3
v -0.2 0.6 0.3
v -0.1 0.6 0.3
v 0.3 0.6 0.3
v 0.4 0.6 0.3
v 0.5 0.6 0.3
v -0.4 0.6 0.2
v -0.3 0.6 0.2
v -0.2 0.6 0.2
v 0.4 0.6 0.2
v 0.5 0.6 0.2
v 0.6 0.6 0.2
v -0.5 0.6 0.1
v -0.4 0.6 0.1
v -0.5 0.6 -0.1
v -0.4 0.6 -0.1
v 0.6 0.6 -0.1
v -0.4 0.6 -0.2
v -0.3 0.6 -0.2
v -0.2 0.6 -0.2
v 0.4 0.6 -0.2
v 0.5 0.6 -0.2
v 0.6 0.6 -0.2
v -0.3 0.6 -0.3
v -0.2 0.6 -0.3
v -0.1 0.6 -0.3
v 0.3 0.6 -0.3
v 0.4 0.6 -0.3
v 0.5 0.6 -0.3
v -0.2 0.6 -0.4
v -0.1 0.6 -0.4
v 0.3 0.6 -0.4
v 0.4 0.6 -0.4
v -0.1 0.6 -0.5
v 0.3 0.6 -0.5
v 0.6 1.1 -0.1
v 0.7 1.1 -0.1
v 0.6 1.1 -0.2
v 0.7 1.1 -0.2

# faces
f 3/4/1 2/4/1 1/4/1
f 4/4/1 2/4/1 3/4/1
f 7/4/1 6/4/1 5/4/1
f 8/4/1 6/4/1 7/4/1
f 12/4/1 10/4/1 9/4/1
f 13/4/1 10/4/1 12/4/1
f 15/4/1 12/4/1 11/4/1
f 16/4/1 12/4/1 15/4/1
f 17/4/1 14/4/1 13/4/1
f 18/4/1 14/4/1 17/4/1
f 19/4/1 17/4/1 16/4/1
f 20/4/1 17/4/1 19/4/1
f 23/2/1 22/2/1 21/2/1
f 24/2/1 22/2/1 23/2/1
f 25/2/1 23/2/1 21/2/1
f 26/2/1 23/2/1 25/2/1
f 27/2/1 22/2/1 24/2/1
f 28/2/1 22/2/1 27/2/1
f 33/2/1 30/2/1 29/2/1
f 34/2/1 32/2/1 31/2/1
f 35/2/1 33/2/1 29/2/1
f 35/2/1 34/2/1 33/2/1
f 36/2/1 32/2/1 34/2/1
f 36/2/1 34/2/1 35/2/1
f 40/3/1 38/3/1 37/3/1
f 41/3/1 38/3/1 40/3/1
f 43/2/1 40/2/1 39/2/1
f 44/2/1 40/2/1 43/2/1
f 45/2/1 42/2/1 41/2/1
f 46/2/1 42/2/1 45/2/1
f 47/3/1 45/3/1 44/3/1
f 48/3/1 45/3/1 47/3/1
f 54/3/1 50/3/1 49/3/1
f 55/3/1 50/3/1 54/3/1
f 56/3/1 52/3/1 51/3/1
f 57/3/1 52/3/1 56/3/1
f 59/2/1 54/2/1 53/2/1
f 60/2/1 54/2/1 59/2/1
f 63/2/1 58/2/1 57/2/1
f 64/2/1 58/2/1 63/2/1
f 65/3/1 61/3/1 60/3/1
f 66/3/1 61/3/1 65/3/1
f 69/3/1 63/3/1 62/3/1
f 70/3/1 63/3/1 69/3/1
f 71/3/1 68/3/1 67/3/1
f 72/3/1 68/3/1 71/3/1
f 78/3/1 74/3/1 73/3/1
f 79/3/1 74/3/1 78/3/1
f 80/3/1 76/3/1 75/3/1
f 81/3/1 76/3/1 80/3/1
f 83/2/1 78/2/1 77/2/1
f 84/2/1 78/2/1 83/2/1
f 87/2/1 82/2/1 81/2/1
f 88/2/1 82/2/1 87/2/1
f 89/3/1 85/3/1 84/3/1
f 90/3/1 85/3/1 89/3/1
f 91/3/1 87/3/1 86/3/1
f 92/3/1 87/3/1 91/3/1
f 95/3/1 94/3/1 93/3/1
f 96/3/1 94/3/1 95/3/1
f 102/3/1 98/3/1 97/3/1
f 103/3/1 98/3/1 102/3/1
f 104/3/1 100/3/1 99/3/1
f 105/3/1 100/3/1 104/3/1
f 107/2/1 102/2/1 101/2/1
f 108/2/1 102/2/1 107/2/1
f 111/2/1 106/2/1 105/2/1
f 112/2/1 106/2/1 111/2/1
f 113/3/1 109/3/1 108/3/1
f 114/3/1 109/3/1 113/3/1
f 115/3/1 111/3/1 110/3/1
f 116/3/1 111/3/1 115/3/1
f 119/3/1 118/3/1 117/3/1
f 120/3/1 118/3/1 119/3/1
f 126/3/1 122/3/1 121/3/1
f 127/3/1 122/3/1 126/3/1
f 128/3/1 124/3/1 123/3/1
f 129/3/1 124/3/1 128/3/1
f 131/2/1 126/2/1 125/2/1
f 132/2/1 126/2/1 131/2/1
f 135/2/1 130/2/1 129/2/1
f 136/2/1 130/2/1 135/2/1
f 137/3/1 133/3/1 132/3/1
f 138/3/1 133/3/1 137/3/1
f 139/3/1 135/3/1 134/3/1
f 140/3/1 135/3/1 139/3/1
f 143/3/1 142/3/1 141/3/1
f 144/3/1 142/3/1 143/3/1
f 148/4/1 146/4/1 145/4/1
f 149/4/1 146/4/1 148/4/1
f 151/4/1 148/4/1 147/4/1
f 152/4/1 148/4/1 151/4/1
f 153/4/1 150/4/1 149/4/1
f 154/4/1 150/4/1 153/4/1
f 155/4/1 153/4/1 152/4/1
f 156/4/1 153/4/1 155/4/1
f 160/3/1 158/3/1 157/3/1
f 161/3/1 158/3/1 160/3/1
f 163/2/1 160/2/1 159/2/1
f 164/2/1 160/2/1 163/2/1
f 165/2/1 162/2/1 161/2/1
f 166/2/1 162/2/1 165/2/1
f 167/2/1 163/2/1 159/2/1
f 168/2/1 163/2/1 167/2/1
f 171/2/1 162/2/1 166/2/1
f 172/2/1 162/2/1 171/2/1
f 173/2/1 169/2/1 168/2/1
f 174/2/1 169/2/1 173/2/1
f 175/2/1 171/2/1 170/2/1
f 176/2/1 171/2/1 175/2/1
f 182/3/1 178/3/1 177/3/1
f 183/3/1 178/3/1 182/3/1
f 184/3/1 180/3/1 179/3/1
f 185/3/1 180/3/1 184/3/1
f 187/2/1 182/2/1 181/2/1
f 188/2/1 182/2/1 187/2/1
f 191/2/1 186/2/1 185/2/1
f 192/2/1 186/2/1 191/2/1
f 193/3/1 189/3/1 188/3/1
f 194/3/1 189/3/1 193/3/1
f 195/3/1 191/3/1 190/3/1
f 196/3/1 191/3/1 195/3/1
f 201/2/1 198/2/1 197/2/1
f 202/2/1 198/2/1 201/2/1
f 205/2/1 200/2/1 199/2/1
f 206/2/1 200/2/1 205/2/1
f 207/2/1 203/2/1 202/2/1
f 208/2/1 203/2/1 207/2/1
f 209/2/1 205/2/1 204/2/1
f 210/2/1 205/2/1 209/2/1
f 215/2/1 212/2/1 211/2/1
f 216/2/1 212/2/1 215/2/1
f 219/2/1 214/2/1 213/2/1
f 220/2/1 214/2/1 219/2/1
f 221/2/1 217/2/1 216/2/1
f 222/2/1 217/2/1 221/2/1
f 223/2/1 219/2/1 218/2/1
f 224/2/1 219/2/1 223/2/1
f 230/3/1 226/3/1 225/3/1
f 231/3/1 226/3/1 230/3/1
f 232/3/1 228/3/1 227/3/1
f 233/3/1 228/3/1 232/3/1
f 236/2/1 230/2/1 229/2/1
f 237/2/1 234/2/1 233/2/1
f 239/4/1 236/4/1 235/4/1
f 240/2/1 230/2/1 236/2/1
f 240/4/1 236/4/1 239/4/1
f 241/4/1 238/4/1 237/4/1
f 241/2/1 237/2/1 233/2/1
f 242/4/1 238/4/1 241/4/1
f 243/2/1 230/2/1 240/2/1
f 244/2/1 230/2/1 243/2/1
f 247/2/1 241/2/1 233/2/1
f 248/2/1 241/2/1 247/2/1
f 249/3/1 245/3/1 244/3/1
f 250/3/1 245/3/1 249/3/1
f 251/3/1 247/3/1 246/3/1
f 252/3/1 247/3/1 251/3/1
f 257/2/1 254/2/1 253/2/1
f 258/2/1 254/2/1 257/2/1
f 261/2/1 256/2/1 255/2/1
f 262/2/1 256/2/1 261/2/1
f 263/2/1 259/2/1 258/2/1
f 264/2/1 259/2/1 263/2/1
f 265/2/1 261/2/1 260/2/1
f 266/2/1 261/2/1 265/2/1
f 272/4/1 268/4/1 267/4/1
f 273/4/1 268/4/1 272/4/1
f 274/4/1 270/4/1 269/4/1
f 275/4/1 270/4/1 274/4/1
f 277/4/1 272/4/1 271/4/1
f 278/4/1 272/4/1 277/4/1
f 281/4/1 276/4/1 275/4/1
f 282/4/1 276/4/1 281/4/1
f 283/4/1 279/4/1 278/4/1
f 284/4/1 279/4/1 283/4/1
f 285/4/1 281/4/1 280/4/1
f 286/4/1 281/4/1 285/4/1
f 291/3/1 288/3/1 287/3/1
f 292/3/1 288/3/1 291/3/1
f 293/3/1 288/3/1 292/3/1
f 294/3/1 290/3/1 289/3/1
f 295/3/1 290/3/1 294/3/1
f 296/3/1 290/3/1 295/3/1
f 297/4/1 292/4/1 291/4/1
f 298/4/1 292/4/1 297/4/1
f 301/4/1 296/4/1 295/4/1
f 302/4/1 296/4/1 301/4/1
f 303/4/1 299/4/1 298/4/1
f 304/4/1 299/4/1 303/4/1
f 307/4/1 301/4/1 300/4/1
f 308/4/1 301/4/1 307/4/1
f 309/4/1 305/4/1 304/4/1
f 310/4/1 305/4/1 309/4/1
f 313/4/1 307/4/1 306/4/1
f 314/4/1 307/4/1 313/4/1
f 315/4/1 311/4/1 310/4/1
f 316/4/1 311/4/1 315/4/1
f 319/4/1 313/4/1 312/4/1
f 320/4/1 313/4/1 319/4/1
f 321/4/1 317/4/1 316/4/1
f 322/4/1 317/4/1 321/4/1
f 323/4/1 319/4/1 318/4/1
f 324/4/1 319/4/1 323/4/1
f 329/3/1 326/3/1 325/3/1
f 330/3/1 326/3/1 329/3/1
f 331/3/1 328/3/1 327/3/1
f 332/3/1 328/3/1 331/3/1
f 337/3/1 334/3/1 333/3/1
f 338/3/1 334/3/1 337/3/1
f 339/3/1 336/3/1 335/3/1
f 340/3/1 336/3/1 339/3/1
f 341/2/1 338/2/1 337/2/1
f 342/2/1 338/2/1 341/2/1
f 343/2/1 340/2/1 339/2/1
f 344/2/1 340/2/1 343/2/1
f 349/3/1 346/3/1 345/3/1
f 350/3/1 346/3/1 349/3/1
f 351/3/1 348/3/1 347/3/1
f 352/3/1 348/3/1 351/3/1
f 353/2/1 350/2/1 349/2/1
f 354/2/1 350/2/1 353/2/1
f 355/2/1 352/2/1 351/2/1
f 356/2/1 352/2/1 355/2/1
f 363/3/1 358/3/1 357/3/1
f 364/3/1 358/3/1 363/3/1
f 365/3/1 362/3/1 361/3/1
f 366/3/1 362/3/1 365/3/1
f 367/3/1 360/3/1 359/3/1
f 368/3/1 360/3/1 367/3/1
f 372/3/1 370/3/1 369/3/1
f 373/3/1 370/3/1 372/3/1
f 375/3/1 372/3/1 371/3/1
f 375/3/1 374/3/1 373/3/1
f 375/3/1 373/3/1 372/3/1
f 376/3/1 374/3/1 375/3/1
f 377/2/1 376/2/1 375/2/1
f 378/2/1 376/2/1 377/2/1
f 381/3/1 380/3/1 379/3/1
f 382/3/1 380/3/1 381/3/1
f 385/2/1 384/2/1 383/2/1
f 386/2/1 384/2/1 385/2/1
f 387/1/1 386/1/1 385/1/1
f 388/1/1 386/1/1 387/1/1
f 393/3/1 390/3/1 389/3/1
f 394/3/1 390/3/1 393/3/1
f 395/3/1 392/3/1 391/3/1
f 396/3/1 392/3/1 395/3/1
f 399/3/1 398/3/1 397/3/1
f 400/3/1 398/3/1 399/3/1
f 405/3/1 402/3/1 401/3/1
f 406/3/1 402/3/1 405/3/1
f 407/3/1 404/3/1 403/3/1
f 408/3/1 404/3/1 407/3/1
f 411/3/1 410/3/1 409/3/1
f 412/3/1 410/3/1 411/3/1
f 417/3/1 414/3/1 413/3/1
f 418/3/1 414/3/1 417/3/1
f 421/3/1 416/3/1 415/3/1
f 422/3/1 416/3/1 421/3/1
f 423/3/1 420/3/1 419/3/1
f 424/3/1 420/3/1 423/3/1
f 427/3/1 426/3/1 425/3/1
f 428/3/1 426/3/1 427/3/1
f 429/3/1 427/3/1 425/3/1
f 430/3/1 427/3/1 429/3/1
f 431/3/1 426/3/1 428/3/1
f 432/3/1 426/3/1 431/3/1
f 433/3/2 434/3/2 435/3/2
f 435/3/2 434/3/2 436/3/2
f 433/3/2 435/3/2 437/3/2
f 437/3/2 435/3/2 438/3/2
f 436/3/2 434/3/2 439/3/2
f 439/3/2 434/3/2 440/3/2
f 441/3/2 442/3/2 445/3/2
f 445/3/2 442/3/2 446/3/2
f 443/3/2 444/3/2 449/3/2
f 449/3/2 444/3/2 450/3/2
f 447/3/2 448/3/2 451/3/2
f 451/3/2 448/3/2 452/3/2
f 453/3/2 454/3/2 457/3/2
f 457/3/2 454/3/2 458/3/2
f 455/3/2 456/3/2 459/3/2
f 459/3/2 456/3/2 460/3/2
f 461/3/2 462/3/2 463/3/2
f 463/3/2 462/3/2 464/3/2
f 465/3/2 466/3/2 469/3/2
f 469/3/2 466/3/2 470/3/2
f 467/3/2 468/3/2 471/3/2
f 471/3/2 468/3/2 472/3/2
f 473/3/2 474/3/2 475/3/2
f 475/3/2 474/3/2 476/3/2
f 477/3/2 478/3/2 479/3/2
f 479/3/2 478/3/2 480/3/2
f 481/3/2 482/3/2 487/3/2
f 487/3/2 482/3/2 488/3/2
f 485/3/2 486/3/2 489/3/2
f 489/3/2 486/3/2 490/3/2
f 483/3/2 484/3/2 491/3/2
f 491/3/2 484/3/2 492/3/2
f 493/3/2 494/3/2 496/3/2
f 496/3/2 494/3/2 497/3/2
f 495/2/2 496/2/2 499/2/2
f 497/2/2 498/2/2 499/2/2
f 496/2/2 497/2/2 499/2/2
f 499/2/2 498/2/2 500/2/2
f 495/2/2 499/2/2 501/2/2
f 499/4/2 500/4/2 501/4/2
f 500/2/2 498/2/2 502/2/2
f 501/4/2 500/4/2 502/4/2
f 495/2/2 501/2/2 503/2/2
f 501/2/2 502/2/2 503/2/2
f 502/2/2 498/2/2 504/2/2
f 503/2/2 502/2/2 504/2/2
f 503/2/2 504/2/2 505/2/2
f 505/2/2 504/2/2 506/2/2
f 507/3/2 508/3/2 511/3/2
f 511/3/2 508/3/2 512/3/2
f 509/3/2 510/3/2 513/3/2
f 513/3/2 510/3/2 514/3/2
f 511/2/2 512/2/2 515/2/2
f 515/2/2 512/2/2 516/2/2
f 513/2/2 514/2/2 517/2/2
f 517/2/2 514/2/2 518/2/2
f 519/3/2 520/3/2 523/3/2
f 523/3/2 520/3/2 524/3/2
f 521/3/2 522/3/2 525/3/2
f 525/3/2 522/3/2 526/3/2
f 527/3/2 528/3/2 531/3/2
f 531/3/2 528/3/2 532/3/2
f 529/3/2 530/3/2 533/3/2
f 533/3/2 530/3/2 534/3/2
f 531/2/2 532/2/2 535/2/2
f 535/2/2 532/2/2 536/2/2
f 533/2/2 534/2/2 537/2/2
f 537/2/2 534/2/2 538/2/2
f 539/4/2 540/4/2 544/4/2
f 544/4/2 540/4/2 545/4/2
f 541/4/2 542/4/2 546/4/2
f 546/4/2 542/4/2 547/4/2
f 543/4/2 544/4/2 549/4/2
f 549/4/2 544/4/2 550/4/2
f 547/4/2 548/4/2 553/4/2
f 553/4/2 548/4/2 554/4/2
f 550/4/2 551/4/2 555/4/2
f 555/4/2 551/4/2 556/4/2
f 552/4/2 553/4/2 557/4/2
f 557/4/2 553/4/2 558/4/2
f 559/3/2 560/3/2 563/3/2
f 563/3/2 560/3/2 564/3/2
f 564/3/2 560/3/2 565/3/2
f 561/3/2 562/3/2 566/3/2
f 566/3/2 562/3/2 567/3/2
f 567/3/2 562/3/2 568/3/2
f 563/4/2 564/4/2 569/4/2
f 569/4/2 564/4/2 570/4/2
f 567/4/2 568/4/2 573/4/2
f 573/4/2 568/4/2 574/4/2
f 570/4/2 571/4/2 575/4/2
f 575/4/2 571/4/2 576/4/2
f 572/4/2 573/4/2 579/4/2
f 579/4/2 573/4/2 580/4/2
f 576/4/2 577/4/2 581/4/2
f 581/4/2 577/4/2 582/4/2
f 578/4/2 579/4/2 585/4/2
f 585/4/2 579/4/2 586/4/2
f 582/4/2 583/4/2 587/4/2
f 587/4/2 583/4/2 588/4/2
f 584/4/2 585/4/2 591/4/2
f 591/4/2 585/4/2 592/4/2
f 588/4/2 589/4/2 593/4/2
f 593/4/2 589/4/2 594/4/2
f 590/4/2 591/4/2 595/4/2
f 595/4/2 591/4/2 596/4/2
f 597/3/2 598/3/2 602/3/2
f 602/3/2 598/3/2 603/3/2
f 599/3/2 600/3/2 604/3/2
f 604/3/2 600/3/2 605/3/2
f 601/2/2 602/2/2 608/2/2
f 605/2/2 606/2/2 609/2/2
f 607/4/2 608/4/2 611/4/2
f 608/2/2 602/2/2 612/2/2
f 611/4/2 608/4/2 612/4/2
f 609/4/2 610/4/2 613/4/2
f 605/2/2 609/2/2 613/2/2
f 613/4/2 610/4/2 614/4/2
f 612/2/2 602/2/2 615/2/2
f 615/2/2 602/2/2 616/2/2
f 605/2/2 613/2/2 619/2/2
f 619/2/2 613/2/2 620/2/2
f 616/3/2 617/3/2 621/3/2
f 621/3/2 617/3/2 622/3/2
f 618/3/2 619/3/2 623/3/2
f 623/3/2 619/3/2 624/3/2
f 625/2/2 626/2/2 629/2/2
f 629/2/2 626/2/2 630/2/2
f 627/2/2 628/2/2 633/2/2
f 633/2/2 628/2/2 634/2/2
f 630/2/2 631/2/2 635/2/2
f 635/2/2 631/2/2 636/2/2
f 632/2/2 633/2/2 637/2/2
f 637/2/2 633/2/2 638/2/2
f 639/2/2 640/2/2 643/2/2
f 643/2/2 640/2/2 644/2/2
f 641/2/2 642/2/2 647/2/2
f 647/2/2 642/2/2 648/2/2
f 644/2/2 645/2/2 649/2/2
f 649/2/2 645/2/2 650/2/2
f 646/2/2 647/2/2 651/2/2
f 651/2/2 647/2/2 652/2/2
f 653/3/2 654/3/2 658/3/2
f 658/3/2 654/3/2 659/3/2
f 655/3/2 656/3/2 660/3/2
f 660/3/2 656/3/2 661/3/2
f 657/2/2 658/2/2 663/2/2
f 663/2/2 658/2/2 664/2/2
f 661/2/2 662/2/2 667/2/2
f 667/2/2 662/2/2 668/2/2
f 664/3/2 665/3/2 669/3/2
f 669/3/2 665/3/2 670/3/2
f 666/3/2 667/3/2 671/3/2
f 671/3/2 667/3/2 672/3/2
f 673/2/2 674/2/2 677/2/2
f 677/2/2 674/2/2 678/2/2
f 675/2/2 676/2/2 681/2/2
f 681/2/2 676/2/2 682/2/2
f 678/2/2 679/2/2 683/2/2
f 683/2/2 679/2/2 684/2/2
f 680/2/2 681/2/2 685/2/2
f 685/2/2 681/2/2 686/2/2
f 687/3/2 688/3/2 691/3/2
f 691/3/2 688/3/2 692/3/2
f 689/2/2 690/2/2 695/2/2
f 695/2/2 690/2/2 696/2/2
f 693/2/2 694/2/2 698/2/2
f 698/2/2 694/2/2 699/2/2
f 696/2/2 697/2/2 700/2/2
f 700/2/2 697/2/2 701/2/2
f 702/3/2 703/3/2 707/3/2
f 707/3/2 703/3/2 708/3/2
f 704/3/2 705/3/2 709/3/2
f 709/3/2 705/3/2 710/3/2
f 706/2/2 707/2/2 712/2/2
f 712/2/2 707/2/2 713/2/2
f 710/2/2 711/2/2 716/2/2
f 716/2/2 711/2/2 717/2/2
f 713/3/2 714/3/2 718/3/2
f 718/3/2 714/3/2 719/3/2
f 715/3/2 716/3/2 720/3/2
f 720/3/2 716/3/2 721/3/2
f 722/3/2 723/3/2 724/3/2
f 724/3/2 723/3/2 725/3/2
f 726/2/2 727/2/2 728/2/2
f 728/2/2 727/2/2 729/2/2
f 729/2/2 727/2/2 730/2/2
f 730/2/2 727/2/2 731/2/2
f 730/1/2 731/1/2 732/1/2
f 732/1/2 731/1/2 733/1/2
f 734/3/2 735/3/2 739/3/2
f 739/3/2 735/3/2 740/3/2
f 736/3/2 737/3/2 741/3/2
f 741/3/2 737/3/2 742/3/2
f 738/2/2 739/2/2 744/2/2
f 744/2/2 739/2/2 745/2/2
f 742/2/2 743/2/2 749/2/2
f 749/2/2 743/2/2 750/2/2
f 746/3/2 747/3/2 751/3/2
f 751/3/2 747/3/2 752/3/2
f 748/3/2 749/3/2 753/3/2
f 753/3/2 749/3/2 754/3/2
f 755/3/2 756/3/2 757/3/2
f 757/3/2 756/3/2 758/3/2
f 759/3/2 760/3/2 764/3/2
f 764/3/2 760/3/2 765/3/2
f 761/3/2 762/3/2 766/3/2
f 766/3/2 762/3/2 767/3/2
f 763/2/2 764/2/2 770/2/2
f 769/2/2 770/2/2 771/2/2
f 770/2/2 764/2/2 772/2/2
f 771/2/2 770/2/2 772/2/2
f 767/2/2 768/2/2 775/2/2
f 775/2/2 768/2/2 776/2/2
f 772/3/2 773/3/2 777/3/2
f 777/3/2 773/3/2 778/3/2
f 774/3/2 775/3/2 779/3/2
f 779/3/2 775/3/2 780/3/2
f 781/3/2 782/3/2 783/3/2
f 783/3/2 782/3/2 784/3/2
f 785/3/2 786/3/2 790/3/2
f 790/3/2 786/3/2 791/3/2
f 787/3/2 788/3/2 792/3/2
f 792/3/2 788/3/2 793/3/2
f 789/2/2 790/2/2 795/2/2
f 795/2/2 790/2/2 796/2/2
f 793/2/2 794/2/2 799/2/2
f 799/2/2 794/2/2 800/2/2
f 796/3/2 797/3/2 801/3/2
f 801/3/2 797/3/2 802/3/2
f 798/3/2 799/3/2 805/3/2
f 805/3/2 799/3/2 806/3/2
f 803/3/2 804/3/2 807/3/2
f 807/3/2 804/3/2 808/3/2
f 809/3/2 810/3/2 812/3/2
f 812/3/2 810/3/2 813/3/2
f 811/2/2 812/2/2 815/2/2
f 815/2/2 812/2/2 816/2/2
f 813/2/2 814/2/2 817/2/2
f 817/2/2 814/2/2 818/2/2
f 816/3/2 817/3/2 819/3/2
f 819/3/2 817/3/2 820/3/2
f 821/2/2 822/2/2 823/2/2
f 823/2/2 822/2/2 824/2/2
f 827/4/3 826/4/3 825/4/3
f 828/4/3 826/4/3 827/4/3
f 832/4/3 830/4/3 829/4/3
f 833/4/3 830/4/3 832/4/3
f 835/4/3 832/4/3 831/4/3
f 836/4/3 832/4/3 835/4/3
f 837/4/3 834/4/3 833/4/3
f 838/4/3 834/4/3 837/4/3
f 839/4/3 837/4/3 836/4/3
f 840/4/3 837/4/3 839/4/3
f 845/2/3 842/2/3 841/2/3
f 846/2/3 842/2/3 845/2/3
f 847/2/3 844/2/3 843/2/3
f 848/2/3 844/2/3 847/2/3
f 849/2/3 845/2/3 841/2/3
f 852/2/3 844/2/3 848/2/3
f 853/2/3 850/2/3 849/2/3
f 853/2/3 849/2/3 841/2/3
f 854/2/3 850/2/3 853/2/3
f 855/2/3 852/2/3 851/2/3
f 856/2/3 844/2/3 852/2/3
f 856/2/3 852/2/3 855/2/3
f 860/2/3 858/2/3 857/2/3
f 861/2/3 858/2/3 860/2/3
f 863/3/3 860/3/3 859/3/3
f 864/3/3 860/3/3 863/3/3
f 865/3/3 862/3/3 861/3/3
f 866/3/3 862/3/3 865/3/3
f 867/2/3 865/2/3 864/2/3
f 868/2/3 865/2/3 867/2/3
f 872/2/3 870/2/3 869/2/3
f 873/2/3 870/2/3 872/2/3
f 875/3/3 872/3/3 871/3/3
f 876/3/3 872/3/3 875/3/3
f 877/3/3 874/3/3 873/3/3
f 878/3/3 874/3/3 877/3/3
f 881/4/3 880/4/3 879/4/3
f 882/4/3 880/4/3 881/4/3
f 887/3/3 884/3/3 883/3/3
f 888/3/3 884/3/3 887/3/3
f 889/3/3 886/3/3 885/3/3
f 890/3/3 886/3/3 889/3/3
f 891/2/3 889/2/3 888/2/3
f 892/2/3 889/2/3 891/2/3
f 896/2/3 894/2/3 893/2/3
f 897/2/3 894/2/3 896/2/3
f 899/3/3 896/3/3 895/3/3
f 900/3/3 896/3/3 899/3/3
f 901/3/3 898/3/3 897/3/3
f 902/3/3 898/3/3 901/3/3
f 905/4/3 904/4/3 903/4/3
f 906/4/3 904/4/3 905/4/3
f 911/3/3 908/3/3 907/3/3
f 912/3/3 908/3/3 911/3/3
f 913/3/3 910/3/3 909/3/3
f 914/3/3 910/3/3 913/3/3
f 915/2/3 913/2/3 912/2/3
f 916/2/3 913/2/3 915/2/3
f 917/2/3 913/2/3 916/2/3
f 918/2/3 913/2/3 917/2/3
f 922/2/3 920/2/3 919/2/3
f 923/2/3 920/2/3 922/2/3
f 925/3/3 922/3/3 921/3/3
f 926/3/3 922/3/3 925/3/3
f 927/3/3 924/3/3 923/3/3
f 928/3/3 924/3/3 927/3/3
f 931/4/3 930/4/3 929/4/3
f 932/4/3 930/4/3 931/4/3
f 937/3/3 934/3/3 933/3/3
f 938/3/3 934/3/3 937/3/3
f 940/3/3 936/3/3 935/3/3
f 941/3/3 936/3/3 940/3/3
f 942/2/3 939/2/3 938/2/3
f 943/2/3 939/2/3 942/2/3
f 947/2/3 945/2/3 944/2/3
f 948/2/3 945/2/3 947/2/3
f 950/3/3 947/3/3 946/3/3
f 951/3/3 947/3/3 950/3/3
f 952/3/3 949/3/3 948/3/3
f 953/3/3 949/3/3 952/3/3
f 958/4/3 957/4/3 956/4/3
f 959/4/3 957/4/3 958/4/3
f 960/2/3 955/2/3 954/2/3
f 961/2/3 955/2/3 960/2/3
f 966/3/3 963/3/3 962/3/3
f 967/3/3 963/3/3 966/3/3
f 968/3/3 965/3/3 964/3/3
f 969/3/3 965/3/3 968/3/3
f 970/2/3 968/2/3 967/2/3
f 971/2/3 968/2/3 970/2/3
f 974/2/3 973/2/3 972/2/3
f 975/2/3 973/2/3 974/2/3
f 979/4/3 978/4/3 977/4/3
f 980/4/3 978/4/3 979/4/3
f 982/2/3 976/2/3 975/2/3
f 983/2/3 976/2/3 982/2/3
f 984/2/3 982/2/3 981/2/3
f 985/2/3 982/2/3 984/2/3
f 989/2/3 987/2/3 986/2/3
f 990/2/3 987/2/3 989/2/3
f 992/3/3 989/3/3 988/3/3
f 993/3/3 989/3/3 992/3/3
f 994/3/3 991/3/3 990/3/3
f 995/3/3 991/3/3 994/3/3
f 998/2/3 997/2/3 996/2/3
f 999/2/3 997/2/3 998/2/3
f 1001/2/3 1000/2/3 999/2/3
f 1002/2/3 1000/2/3 1001/2/3
f 1006/2/3 1004/2/3 1003/2/3
f 1007/2/3 1004/2/3 1006/2/3
f 1008/2/3 1006/2/3 1005/2/3
f 1009/2/3 1006/2/3 1008/2/3
f 1014/3/3 1011/3/3 1010/3/3
f 1015/3/3 1011/3/3 1014/3/3
f 1016/3/3 1013/3/3 1012/3/3
f 1017/3/3 1013/3/3 1016/3/3
f 1018/2/3 1016/2/3 1015/2/3
f 1019/2/3 1016/2/3 1018/2/3
f 1022/2/3 1021/2/3 1020/2/3
f 1023/2/3 1021/2/3 1022/2/3
f 1025/2/3 1024/2/3 1023/2/3
f 1026/2/3 1024/2/3 1025/2/3
f 1030/2/3 1028/2/3 1027/2/3
f 1031/2/3 1028/2/3 1030/2/3
f 1032/2/3 1030/2/3 1029/2/3
f 1033/2/3 1030/2/3 1032/2/3
f 1037/4/3 1035/4/3 1034/4/3
f 1038/4/3 1035/4/3 1037/4/3
f 1041/2/3 1037/2/3 1036/2/3
f 1041/2/3 1039/2/3 1038/2/3
f 1041/2/3 1038/2/3 1037/2/3
f 1042/2/3 1039/2/3 1041/2/3
f 1044/3/3 1041/3/3 1040/3/3
f 1045/3/3 1041/3/3 1044/3/3
f 1046/3/3 1043/3/3 1042/3/3
f 1047/3/3 1043/3/3 1046/3/3
f 1050/4/3 1049/4/3 1048/4/3
f 1051/4/3 1049/4/3 1050/4/3
f 1053/2/3 1052/2/3 1051/2/3
f 1054/2/3 1052/2/3 1053/2/3
f 1058/2/3 1056/2/3 1055/2/3
f 1059/2/3 1056/2/3 1058/2/3
f 1060/2/3 1058/2/3 1057/2/3
f 1061/2/3 1058/2/3 1060/2/3
f 1066/3/3 1063/3/3 1062/3/3
f 1067/3/3 1063/3/3 1066/3/3
f 1068/3/3 1065/3/3 1064/3/3
f 1069/3/3 1065/3/3 1068/3/3
f 1070/2/3 1068/2/3 1067/2/3
f 1071/2/3 1068/2/3 1070/2/3
f 1077/4/3 1073/4/3 1072/4/3
f 1078/4/3 1073/4/3 1077/4/3
f 1080/4/3 1077/4/3 1076/4/3
f 1081/4/3 1077/4/3 1080/4/3
f 1082/4/3 1079/4/3 1078/4/3
f 1083/4/3 1079/4/3 1082/4/3
f 1087/3/3 1085/3/3 1084/3/3
f 1087/3/3 1086/3/3 1085/3/3
f 1088/3/3 1086/3/3 1087/3/3
f 1090/3/3 1089/3/3 1088/3/3
f 1091/3/3 1089/3/3 1090/3/3
f 1093/3/3 1092/3/3 1091/3/3
f 1094/3/3 1092/3/3 1093/3/3
f 1097/4/3 1075/4/3 1074/4/3
f 1098/4/3 1075/4/3 1097/4/3
f 1100/3/3 1095/3/3 1094/3/3
f 1101/3/3 1095/3/3 1100/3/3
f 1102/4/3 1097/4/3 1096/4/3
f 1103/4/3 1097/4/3 1102/4/3
f 1104/4/3 1099/4/3 1098/4/3
f 1105/4/3 1099/4/3 1104/4/3
f 1106/3/3 1087/3/3 1084/3/3
f 1107/3/3 1087/3/3 1106/3/3
f 1108/3/3 1102/3/3 1101/3/3
f 1109/3/3 1102/3/3 1108/3/3
f 1115/3/3 1113/3/3 1112/3/3
f 1116/3/3 1113/3/3 1115/3/3
f 1118/3/3 1115/3/3 1114/3/3
f 1119/3/3 1115/3/3 1118/3/3
f 1121/3/3 1118/3/3 1117/3/3
f 1122/3/3 1118/3/3 1121/3/3
f 1123/3/3 1111/3/3 1110/3/3
f 1124/3/3 1121/3/3 1120/3/3
f 1125/3/3 1121/3/3 1124/3/3
f 1126/3/3 1123/3/3 1110/3/3
f 1126/3/3 1124/3/3 1123/3/3
f 1127/3/3 1124/3/3 1126/3/3
f 1128/3/3 1124/3/3 1127/3/3
f 1133/2/3 1130/2/3 1129/2/3
f 1133/2/3 1131/2/3 1130/2/3
f 1134/1/3 1132/1/3 1131/1/3
f 1134/2/3 1131/2/3 1133/2/3
f 1135/1/3 1132/1/3 1134/1/3
f 1138/3/3 1137/3/3 1136/3/3
f 1139/3/3 1137/3/3 1138/3/3
f 1143/3/3 1141/3/3 1140/3/3
f 1144/2/3 1142/2/3 1141/2/3
f 1144/3/3 1141/3/3 1143/3/3
f 1145/2/3 1142/2/3 1144/2/3
f 1149/3/3 1147/3/3 1146/3/3
f 1150/2/3 1148/2/3 1147/2/3
f 1150/3/3 1147/3/3 1149/3/3
f 1151/2/3 1148/2/3 1150/2/3
f 1154/3/3 1153/3/3 1152/3/3
f 1155/3/3 1153/3/3 1154/3/3
f 1159/3/3 1157/3/3 1156/3/3
f 1160/2/3 1158/2/3 1157/2/3
f 1160/3/3 1157/3/3 1159/3/3
f 1161/2/3 1158/2/3 1160/2/3
f 1165/3/3 1163/3/3 1162/3/3
f 1166/2/3 1164/2/3 1163/2/3
f 1166/3/3 1163/3/3 1165/3/3
f 1167/2/3 1164/2/3 1166/2/3
f 1170/3/3 1169/3/3 1168/3/3
f 1171/3/3 1169/3/3 1170/3/3
f 1178/3/3 1173/3/3 1172/3/3
f 1179/3/3 1176/3/3 1175/3/3
f 1180/3/3 1176/3/3 1179/3/3
f 1181/4/3 1178/4/3 1177/4/3
f 1182/3/3 1173/3/3 1178/3/3
f 1182/4/3 1178/4/3 1181/4/3
f 1183/3/3 1173/3/3 1182/3/3
f 1184/2/3 1174/2/3 1173/2/3
f 1184/3/3 1173/3/3 1183/3/3
f 1185/2/3 1174/2/3 1184/2/3
f 1188/3/3 1187/3/3 1186/3/3
f 1189/3/3 1187/3/3 1188/3/3
f 1192/4/3 1191/4/3 1190/4/3
f 1193/4/3 1191/4/3 1192/4/3
f 1196/3/3 1195/3/3 1194/3/3
f 1197/3/3 1195/3/3 1196/3/3
f 1200/4/3 1199/4/3 1198/4/3
f 1201/4/3 1199/4/3 1200/4/3
f 1204/3/3 1203/3/3 1202/3/3
f 1205/3/3 1203/3/3 1204/3/3
f 1208/3/3 1207/3/3 1206/3/3
f 1209/3/3 1207/3/3 1208/3/3
f 1212/4/3 1211/4/3 1210/4/3
f 1213/4/3 1211/4/3 1212/4/3
f 1216/3/3 1215/3/3 1214/3/3
f 1217/3/3 1215/3/3 1216/3/3
f 1220/3/3 1219/3/3 1218/3/3
f 1221/3/3 1219/3/3 1220/3/3
f 1224/4/3 1223/4/3 1222/4/3
f 1225/4/3 1223/4/3 1224/4/3
f 1228/3/3 1227/3/3 1226/3/3
f 1229/3/3 1227/3/3 1228/3/3
f 1232/3/3 1231/3/3 1230/3/3
f 1233/3/3 1231/3/3 1232/3/3
f 1234/3/3 1232/3/3 1230/3/3
f 1236/3/3 1234/3/3 1230/3/3
f 1236/3/3 1235/3/3 1234/3/3
f 1237/3/3 1235/3/3 1236/3/3
f 1238/3/4 1239/3/4 1240/3/4
f 1240/3/4 1239/3/4 1241/3/4
f 1238/3/4 1240/3/4 1242/3/4
f 1238/3/4 1242/3/4 1244/3/4
f 1242/3/4 1243/3/4 1244/3/4
f 1244/3/4 1243/3/4 1245/3/4
f 1246/3/4 1247/3/4 1248/3/4
f 1248/3/4 1247/3/4 1249/3/4
f 1250/4/4 1251/4/4 1252/4/4
f 1252/4/4 1251/4/4 1253/4/4
f 1254/3/4 1255/3/4 1256/3/4
f 1256/3/4 1255/3/4 1257/3/4
f 1258/3/4 1259/3/4 1260/3/4
f 1260/3/4 1259/3/4 1261/3/4
f 1262/4/4 1263/4/4 1264/4/4
f 1264/4/4 1263/4/4 1265/4/4
f 1266/3/4 1267/3/4 1268/3/4
f 1268/3/4 1267/3/4 1269/3/4
f 1270/3/4 1271/3/4 1272/3/4
f 1272/3/4 1271/3/4 1273/3/4
f 1274/4/4 1275/4/4 1276/4/4
f 1276/4/4 1275/4/4 1277/4/4
f 1278/3/4 1279/3/4 1280/3/4
f 1280/3/4 1279/3/4 1281/3/4
f 1282/4/4 1283/4/4 1284/4/4
f 1284/4/4 1283/4/4 1285/4/4
f 1286/3/4 1287/3/4 1288/3/4
f 1288/3/4 1287/3/4 1289/3/4
f 1290/3/4 1291/3/4 1296/3/4
f 1293/3/4 1294/3/4 1297/3/4
f 1297/3/4 1294/3/4 1298/3/4
f 1295/4/4 1296/4/4 1299/4/4
f 1296/3/4 1291/3/4 1300/3/4
f 1299/4/4 1296/4/4 1300/4/4
f 1300/3/4 1291/3/4 1301/3/4
f 1291/2/4 1292/2/4 1302/2/4
f 1301/3/4 1291/3/4 1302/3/4
f 1302/2/4 1292/2/4 1303/2/4
f 1304/3/4 1305/3/4 1306/3/4
f 1306/3/4 1305/3/4 1307/3/4
f 1308/3/4 1309/3/4 1311/3/4
f 1309/2/4 1310/2/4 1312/2/4
f 1311/3/4 1309/3/4 1312/3/4
f 1312/2/4 1310/2/4 1313/2/4
f 1314/3/4 1315/3/4 1317/3/4
f 1315/2/4 1316/2/4 1318/2/4
f 1317/3/4 1315/3/4 1318/3/4
f 1318/2/4 1316/2/4 1319/2/4
f 1320/3/4 1321/3/4 1322/3/4
f 1322/3/4 1321/3/4 1323/3/4
f 1324/3/4 1325/3/4 1327/3/4
f 1325/2/4 1326/2/4 1328/2/4
f 1327/3/4 1325/3/4 1328/3/4
f 1328/2/4 1326/2/4 1329/2/4
f 1330/3/4 1331/3/4 1333/3/4
f 1331/2/4 1332/2/4 1334/2/4
f 1333/3/4 1331/3/4 1334/3/4
f 1334/2/4 1332/2/4 1335/2/4
f 1336/3/4 1337/3/4 1338/3/4
f 1338/3/4 1337/3/4 1339/3/4
f 1340/4/4 1341/4/4 1345/4/4
f 1345/4/4 1341/4/4 1346/4/4
f 1344/4/4 1345/4/4 1348/4/4
f 1348/4/4 1345/4/4 1349/4/4
f 1346/4/4 1347/4/4 1350/4/4
f 1350/4/4 1347/4/4 1351/4/4
f 1352/3/4 1353/3/4 1355/3/4
f 1353/3/4 1354/3/4 1355/3/4
f 1355/3/4 1354/3/4 1356/3/4
f 1356/3/4 1357/3/4 1358/3/4
f 1358/3/4 1357/3/4 1359/3/4
f 1359/3/4 1360/3/4 1361/3/4
f 1361/3/4 1360/3/4 1362/3/4
f 1342/4/4 1343/4/4 1365/4/4
f 1365/4/4 1343/4/4 1366/4/4
f 1362/3/4 1363/3/4 1368/3/4
f 1368/3/4 1363/3/4 1369/3/4
f 1364/4/4 1365/4/4 1370/4/4
f 1370/4/4 1365/4/4 1371/4/4
f 1366/4/4 1367/4/4 1372/4/4
f 1372/4/4 1367/4/4 1373/4/4
f 1352/3/4 1355/3/4 1374/3/4
f 1374/3/4 1355/3/4 1375/3/4
f 1369/3/4 1370/3/4 1376/3/4
f 1376/3/4 1370/3/4 1377/3/4
f 1380/3/4 1381/3/4 1383/3/4
f 1383/3/4 1381/3/4 1384/3/4
f 1382/3/4 1383/3/4 1386/3/4
f 1386/3/4 1383/3/4 1387/3/4
f 1385/3/4 1386/3/4 1389/3/4
f 1389/3/4 1386/3/4 1390/3/4
f 1378/3/4 1379/3/4 1391/3/4
f 1388/3/4 1389/3/4 1392/3/4
f 1392/3/4 1389/3/4 1393/3/4
f 1378/3/4 1391/3/4 1394/3/4
f 1391/3/4 1392/3/4 1394/3/4
f 1394/3/4 1392/3/4 1395/3/4
f 1395/3/4 1392/3/4 1396/3/4
f 1397/4/4 1398/4/4 1400/4/4
f 1400/4/4 1398/4/4 1401/4/4
f 1399/2/4 1400/2/4 1404/2/4
f 1401/2/4 1402/2/4 1404/2/4
f 1400/2/4 1401/2/4 1404/2/4
f 1404/2/4 1402/2/4 1405/2/4
f 1403/3/4 1404/3/4 1407/3/4
f 1407/3/4 1404/3/4 1408/3/4
f 1405/3/4 1406/3/4 1409/3/4
f 1409/3/4 1406/3/4 1410/3/4
f 1411/4/4 1412/4/4 1413/4/4
f 1413/4/4 1412/4/4 1414/4/4
f 1414/2/4 1415/2/4 1416/2/4
f 1416/2/4 1415/2/4 1417/2/4
f 1418/2/4 1419/2/4 1421/2/4
f 1421/2/4 1419/2/4 1422/2/4
f 1421/2/4 1422/2/4 1425/2/4
f 1420/2/4 1421/2/4 1425/2/4
f 1422/2/4 1423/2/4 1425/2/4
f 1423/1/4 1424/1/4 1426/1/4
f 1425/2/4 1423/2/4 1426/2/4
f 1426/1/4 1424/1/4 1427/1/4
f 1428/3/4 1429/3/4 1432/3/4
f 1432/3/4 1429/3/4 1433/3/4
f 1430/3/4 1431/3/4 1434/3/4
f 1434/3/4 1431/3/4 1435/3/4
f 1433/2/4 1434/2/4 1436/2/4
f 1436/2/4 1434/2/4 1437/2/4
f 1438/2/4 1439/2/4 1440/2/4
f 1440/2/4 1439/2/4 1441/2/4
f 1441/2/4 1442/2/4 1443/2/4
f 1443/2/4 1442/2/4 1444/2/4
f 1445/2/4 1446/2/4 1448/2/4
f 1448/2/4 1446/2/4 1449/2/4
f 1447/2/4 1448/2/4 1450/2/4
f 1450/2/4 1448/2/4 1451/2/4
f 1452/2/4 1453/2/4 1455/2/4
f 1455/2/4 1453/2/4 1456/2/4
f 1454/3/4 1455/3/4 1458/3/4
f 1458/3/4 1455/3/4 1459/3/4
f 1456/3/4 1457/3/4 1460/3/4
f 1460/3/4 1457/3/4 1461/3/4
f 1462/2/4 1463/2/4 1464/2/4
f 1464/2/4 1463/2/4 1465/2/4
f 1465/2/4 1466/2/4 1467/2/4
f 1467/2/4 1466/2/4 1468/2/4
f 1469/2/4 1470/2/4 1472/2/4
f 1472/2/4 1470/2/4 1473/2/4
f 1471/2/4 1472/2/4 1474/2/4
f 1474/2/4 1472/2/4 1475/2/4
f 1476/3/4 1477/3/4 1480/3/4
f 1480/3/4 1477/3/4 1481/3/4
f 1478/3/4 1479/3/4 1482/3/4
f 1482/3/4 1479/3/4 1483/3/4
f 1481/2/4 1482/2/4 1484/2/4
f 1484/2/4 1482/2/4 1485/2/4
f 1486/2/4 1487/2/4 1488/2/4
f 1488/2/4 1487/2/4 1489/2/4
f 1491/4/4 1492/4/4 1493/4/4
f 1493/4/4 1492/4/4 1494/4/4
f 1489/2/4 1490/2/4 1496/2/4
f 1496/2/4 1490/2/4 1497/2/4
f 1495/2/4 1496/2/4 1498/2/4
f 1498/2/4 1496/2/4 1499/2/4
f 1500/2/4 1501/2/4 1503/2/4
f 1503/2/4 1501/2/4 1504/2/4
f 1502/3/4 1503/3/4 1506/3/4
f 1506/3/4 1503/3/4 1507/3/4
f 1504/3/4 1505/3/4 1508/3/4
f 1508/3/4 1505/3/4 1509/3/4
f 1512/4/4 1513/4/4 1514/4/4
f 1514/4/4 1513/4/4 1515/4/4
f 1510/2/4 1511/2/4 1516/2/4
f 1516/2/4 1511/2/4 1517/2/4
f 1518/3/4 1519/3/4 1522/3/4
f 1522/3/4 1519/3/4 1523/3/4
f 1520/3/4 1521/3/4 1524/3/4
f 1524/3/4 1521/3/4 1525/3/4
f 1523/2/4 1524/2/4 1526/2/4
f 1526/2/4 1524/2/4 1527/2/4
f 1528/2/4 1529/2/4 1531/2/4
f 1531/2/4 1529/2/4 1532/2/4
f 1530/3/4 1531/3/4 1534/3/4
f 1534/3/4 1531/3/4 1535/3/4
f 1532/3/4 1533/3/4 1536/3/4
f 1536/3/4 1533/3/4 1537/3/4
f 1538/4/4 1539/4/4 1540/4/4
f 1540/4/4 1539/4/4 1541/4/4
f 1542/3/4 1543/3/4 1546/3/4
f 1546/3/4 1543/3/4 1547/3/4
f 1544/3/4 1545/3/4 1548/3/4
f 1548/3/4 1545/3/4 1549/3/4
f 1547/2/4 1548/2/4 1550/2/4
f 1550/2/4 1548/2/4 1551/2/4
f 1552/2/4 1553/2/4 1555/2/4
f 1555/2/4 1553/2/4 1556/2/4
f 1554/3/4 1555/3/4 1558/3/4
f 1558/3/4 1555/3/4 1559/3/4
f 1556/3/4 1557/3/4 1560/3/4
f 1560/3/4 1557/3/4 1561/3/4
f 1562/4/4 1563/4/4 1564/4/4
f 1564/4/4 1563/4/4 1565/4/4
f 1566/3/4 1567/3/4 1570/3/4
f 1570/3/4 1567/3/4 1571/3/4
f 1568/3/4 1569/3/4 1572/3/4
f 1572/3/4 1569/3/4 1573/3/4
f 1571/2/4 1572/2/4 1574/2/4
f 1574/2/4 1572/2/4 1575/2/4
f 1576/2/4 1577/2/4 1579/2/4
f 1579/2/4 1577/2/4 1580/2/4
f 1578/3/4 1579/3/4 1582/3/4
f 1582/3/4 1579/3/4 1583/3/4
f 1580/3/4 1581/3/4 1584/3/4
f 1584/3/4 1581/3/4 1585/3/4
f 1586/4/4 1587/4/4 1588/4/4
f 1588/4/4 1587/4/4 1589/4/4
f 1590/3/4 1591/3/4 1594/3/4
f 1594/3/4 1591/3/4 1595/3/4
f 1592/3/4 1593/3/4 1596/3/4
f 1596/3/4 1593/3/4 1597/3/4
f 1595/2/4 1596/2/4 1598/2/4
f 1598/2/4 1596/2/4 1599/2/4
f 1600/2/4 1601/2/4 1603/2/4
f 1603/2/4 1601/2/4 1604/2/4
f 1602/3/4 1603/3/4 1606/3/4
f 1606/3/4 1603/3/4 1607/3/4
f 1604/3/4 1605/3/4 1608/3/4
f 1608/3/4 1605/3/4 1609/3/4
f 1607/2/4 1608/2/4 1610/2/4
f 1610/2/4 1608/2/4 1611/2/4
f 1612/2/4 1613/2/4 1616/2/4
f 1616/2/4 1613/2/4 1617/2/4
f 1614/2/4 1615/2/4 1618/2/4
f 1618/2/4 1615/2/4 1619/2/4
f 1612/2/4 1616/2/4 1620/2/4
f 1619/2/4 1615/2/4 1623/2/4
f 1620/2/4 1621/2/4 1624/2/4
f 1612/2/4 1620/2/4 1624/2/4
f 1624/2/4 1621/2/4 1625/2/4
f 1622/2/4 1623/2/4 1626/2/4
f 1623/2/4 1615/2/4 1627/2/4
f 1626/2/4 1623/2/4 1627/2/4
f 1628/4/4 1629/4/4 1631/4/4
f 1631/4/4 1629/4/4 1632/4/4
f 1630/4/4 1631/4/4 1634/4/4
f 1634/4/4 1631/4/4 1635/4/4
f 1632/4/4 1633/4/4 1636/4/4
f 1636/4/4 1633/4/4 1637/4/4
f 1635/4/4 1636/4/4 1638/4/4
f 1638/4/4 1636/4/4 1639/4/4
f 1640/4/4 1641/4/4 1642/4/4
f 1642/4/4 1641/4/4 1643/4/4
f 1647/3/5 1645/3/5 1644/3/5
f 1648/3/5 1645/3/5 1647/3/5
f 1651/3/5 1647/3/5 1646/3/5
f 1652/3/5 1647/3/5 1651/3/5
f 1653/3/5 1649/3/5 1648/3/5
f 1654/3/5 1649/3/5 1653/3/5
f 1657/3/5 1651/3/5 1650/3/5
f 1658/3/5 1651/3/5 1657/3/5
f 1659/3/5 1655/3/5 1654/3/5
f 1660/3/5 1655/3/5 1659/3/5
f 1663/3/5 1657/3/5 1656/3/5
f 1664/3/5 1657/3/5 1663/3/5
f 1665/3/5 1661/3/5 1660/3/5
f 1666/3/5 1661/3/5 1665/3/5
f 1669/3/5 1663/3/5 1662/3/5
f 1670/3/5 1663/3/5 1669/3/5
f 1671/3/5 1667/3/5 1666/3/5
f 1672/3/5 1667/3/5 1671/3/5
f 1675/3/5 1669/3/5 1668/3/5
f 1676/3/5 1669/3/5 1675/3/5
f 1677/3/5 1673/3/5 1672/3/5
f 1678/3/5 1673/3/5 1677/3/5
f 1680/3/5 1675/3/5 1674/3/5
f 1681/3/5 1675/3/5 1680/3/5
f 1684/3/5 1679/3/5 1678/3/5
f 1685/3/5 1679/3/5 1684/3/5
f 1686/3/5 1682/3/5 1681/3/5
f 1687/3/5 1682/3/5 1686/3/5
f 1690/3/5 1684/3/5 1683/3/5
f 1691/3/5 1684/3/5 1690/3/5
f 1692/3/5 1688/3/5 1687/3/5
f 1693/3/5 1688/3/5 1692/3/5
f 1696/3/5 1690/3/5 1689/3/5
f 1697/3/5 1690/3/5 1696/3/5
f 1698/3/5 1694/3/5 1693/3/5
f 1699/3/5 1694/3/5 1698/3/5
f 1702/3/5 1696/3/5 1695/3/5
f 1703/3/5 1696/3/5 1702/3/5
f 1704/3/5 1700/3/5 1699/3/5
f 1705/3/5 1700/3/5 1704/3/5
f 1708/3/5 1702/3/5 1701/3/5
f 1709/3/5 1702/3/5 1708/3/5
f 1710/3/5 1706/3/5 1705/3/5
f 1711/3/5 1706/3/5 1710/3/5
f 1712/3/5 1708/3/5 1707/3/5
f 1713/3/5 1708/3/5 1712/3/5
f 1714/3/5 1712/3/5 1711/3/5
f 1715/3/5 1712/3/5 1714/3/5
f 1719/2/5 1717/2/5 1716/2/5
f 1720/2/5 1717/2/5 1719/2/5
f 1723/2/5 1719/2/5 1718/2/5
f 1724/2/5 1719/2/5 1723/2/5
f 1725/2/5 1721/2/5 1720/2/5
f 1726/2/5 1721/2/5 1725/2/5
f 1729/2/5 1723/2/5 1722/2/5
f 1730/2/5 1723/2/5 1729/2/5
f 1731/2/5 1727/2/5 1726/2/5
f 1732/2/5 1727/2/5 1731/2/5
f 1735/2/5 1729/2/5 1728/2/5
f 1736/2/5 1729/2/5 1735/2/5
f 1737/2/5 1733/2/5 1732/2/5
f 1738/2/5 1733/2/5 1737/2/5
f 1741/2/5 1735/2/5 1734/2/5
f 1742/2/5 1735/2/5 1741/2/5
f 1743/2/5 1739/2/5 1738/2/5
f 1744/2/5 1739/2/5 1743/2/5
f 1747/2/5 1741/2/5 1740/2/5
f 1748/2/5 1741/2/5 1747/2/5
f 1749/2/5 1745/2/5 1744/2/5
f 1750/2/5 1745/2/5 1749/2/5
f 1753/2/5 1747/2/5 1746/2/5
f 1754/2/5 1747/2/5 1753/2/5
f 1755/2/5 1751/2/5 1750/2/5
f 1756/2/5 1751/2/5 1755/2/5
f 1758/2/5 1753/2/5 1752/2/5
f 1759/2/5 1753/2/5 1758/2/5
f 1762/2/5 1757/2/5 1756/2/5
f 1763/2/5 1757/2/5 1762/2/5
f 1764/2/5 1760/2/5 1759/2/5
f 1765/2/5 1760/2/5 1764/2/5
f 1768/2/5 1762/2/5 1761/2/5
f 1769/2/5 1762/2/5 1768/2/5
f 1770/2/5 1766/2/5 1765/2/5
f 1771/2/5 1766/2/5 1770/2/5
f 1774/2/5 1768/2/5 1767/2/5
f 1775/2/5 1768/2/5 1774/2/5
f 1776/2/5 1772/2/5 1771/2/5
f 1777/2/5 1772/2/5 1776/2/5
f 1780/2/5 1774/2/5 1773/2/5
f 1781/2/5 1774/2/5 1780/2/5
f 1782/2/5 1778/2/5 1777/2/5
f 1783/2/5 1778/2/5 1782/2/5
f 1786/2/5 1780/2/5 1779/2/5
f 1787/2/5 1780/2/5 1786/2/5
f 1788/2/5 1784/2/5 1783/2/5
f 1789/2/5 1784/2/5 1788/2/5
f 1792/2/5 1786/2/5 1785/2/5
f 1793/2/5 1786/2/5 1792/2/5
f 1794/2/5 1790/2/5 1789/2/5
f 1795/2/5 1790/2/5 1794/2/5
f 1796/2/5 1792/2/5 1791/2/5
f 1797/2/5 1792/2/5 1796/2/5
f 1798/2/5 1796/2/5 1795/2/5
f 1799/2/5 1796/2/5 1798/2/5
f 1802/4/5 1801/4/5 1800/4/5
f 1803/4/5 1801/4/5 1802/4/5
f 1806/4/5 1805/4/5 1804/4/5
f 1807/4/5 1805/4/5 1806/4/5
f 1810/4/5 1809/4/5 1808/4/5
f 1811/4/5 1809/4/5 1810/4/5
f 1815/4/5 1813/4/5 1812/4/5
f 1816/4/5 1813/4/5 1815/4/5
f 1818/4/5 1815/4/5 1814/4/5
f 1819/4/5 1815/4/5 1818/4/5
f 1820/4/5 1817/4/5 1816/4/5
f 1821/4/5 1817/4/5 1820/4/5
f 1825/4/5 1823/4/5 1822/4/5
f 1826/4/5 1823/4/5 1825/4/5
f 1827/4/5 1825/4/5 1824/4/5
f 1828/4/5 1825/4/5 1827/4/5
f 1830/4/5 1829/4/5 1828/4/5
f 1831/4/5 1829/4/5 1830/4/5
f 1836/4/5 1833/4/5 1832/4/5
f 1837/4/5 1833/4/5 1836/4/5
f 1838/4/5 1835/4/5 1834/4/5
f 1839/4/5 1835/4/5 1838/4/5
f 1840/4/5 1838/4/5 1837/4/5
f 1841/4/5 1838/4/5 1840/4/5
f 1844/2/5 1843/2/5 1842/2/5
f 1845/2/5 1843/2/5 1844/2/5
f 1848/3/5 1847/3/5 1846/3/5
f 1849/3/5 1847/3/5 1848/3/5
f 1854/3/5 1851/3/5 1850/3/5
f 1855/3/5 1851/3/5 1854/3/5
f 1856/3/5 1853/3/5 1852/3/5
f 1857/3/5 1853/3/5 1856/3/5
f 1860/3/5 1859/3/5 1858/3/5
f 1861/3/5 1859/3/5 1860/3/5
f 1864/4/5 1863/4/5 1862/4/5
f 1865/4/5 1863/4/5 1864/4/5
f 1870/3/5 1867/3/5 1866/3/5
f 1871/3/5 1867/3/5 1870/3/5
f 1872/3/5 1869/3/5 1868/3/5
f 1873/3/5 1869/3/5 1872/3/5
f 1876/4/5 1875/4/5 1874/4/5
f 1877/4/5 1875/4/5 1876/4/5
f 1880/4/5 1879/4/5 1878/4/5
f 1881/4/5 1879/4/5 1880/4/5
f 1886/3/5 1883/3/5 1882/3/5
f 1887/3/5 1883/3/5 1886/3/5
f 1888/3/5 1885/3/5 1884/3/5
f 1889/3/5 1885/3/5 1888/3/5
f 1892/4/5 1891/4/5 1890/4/5
f 1893/4/5 1891/4/5 1892/4/5
f 1896/4/5 1895/4/5 1894/4/5
f 1897/4/5 1895/4/5 1896/4/5
f 1902/3/5 1899/3/5 1898/3/5
f 1903/3/5 1899/3/5 1902/3/5
f 1904/3/5 1901/3/5 1900/3/5
f 1905/3/5 1901/3/5 1904/3/5
f 1908/4/5 1907/4/5 1906/4/5
f 1909/4/5 1907/4/5 1908/4/5
f 1912/4/5 1911/4/5 1910/4/5
f 1913/4/5 1911/4/5 1912/4/5
f 1918/3/5 1915/3/5 1914/3/5
f 1919/3/5 1915/3/5 1918/3/5
f 1920/3/5 1917/3/5 1916/3/5
f 1921/3/5 1917/3/5 1920/3/5
f 1924/4/5 1923/4/5 1922/4/5
f 1925/4/5 1923/4/5 1924/4/5
f 1929/2/5 1927/2/5 1926/2/5
f 1930/2/5 1927/2/5 1929/2/5
f 1931/2/5 1927/2/5 1930/2/5
f 1932/2/5 1927/2/5 1931/2/5
f 1935/2/5 1929/2/5 1928/2/5
f 1936/3/5 1930/3/5 1929/3/5
f 1936/2/5 1929/2/5 1935/2/5
f 1937/3/5 1930/3/5 1936/3/5
f 1938/3/5 1932/3/5 1931/3/5
f 1939/2/5 1933/2/5 1932/2/5
f 1939/3/5 1932/3/5 1938/3/5
f 1940/2/5 1933/2/5 1939/2/5
f 1943/2/5 1935/2/5 1934/2/5
f 1944/3/5 1936/3/5 1935/3/5
f 1944/2/5 1935/2/5 1943/2/5
f 1945/3/5 1936/3/5 1944/3/5
f 1946/3/5 1940/3/5 1939/3/5
f 1947/2/5 1941/2/5 1940/2/5
f 1947/3/5 1940/3/5 1946/3/5
f 1948/2/5 1941/2/5 1947/2/5
f 1950/2/5 1943/2/5 1942/2/5
f 1950/3/5 1944/3/5 1943/3/5
f 1951/3/5 1944/3/5 1950/3/5
f 1952/3/5 1948/3/5 1947/3/5
f 1953/2/5 1949/2/5 1948/2/5
f 1953/3/5 1948/3/5 1952/3/5
f 1954/2/5 1949/2/5 1953/2/5
f 1957/2/5 1950/2/5 1942/2/5
f 1958/2/5 1950/2/5 1957/2/5
f 1959/3/5 1954/3/5 1953/3/5
f 1960/2/5 1955/2/5 1954/2/5
f 1960/3/5 1954/3/5 1959/3/5
f 1961/4/5 1957/4/5 1956/4/5
f 1962/4/5 1957/4/5 1961/4/5
f 1965/2/5 1955/2/5 1960/2/5
f 1966/2/5 1963/2/5 1962/2/5
f 1969/3/5 1965/3/5 1964/3/5
f 1970/2/5 1955/2/5 1965/2/5
f 1970/3/5 1965/3/5 1969/3/5
f 1971/2/5 1955/2/5 1970/2/5
f 1972/2/5 1966/2/5 1962/2/5
f 1973/3/5 1967/3/5 1966/3/5
f 1973/2/5 1966/2/5 1972/2/5
f 1974/3/5 1967/3/5 1973/3/5
f 1977/3/5 1969/3/5 1968/3/5
f 1978/2/5 1970/2/5 1969/2/5
f 1978/3/5 1969/3/5 1977/3/5
f 1979/2/5 1970/2/5 1978/2/5
f 1980/2/5 1974/2/5 1973/2/5
f 1981/3/5 1975/3/5 1974/3/5
f 1981/2/5 1974/2/5 1980/2/5
f 1982/3/5 1975/3/5 1981/3/5
f 1985/3/5 1977/3/5 1976/3/5
f 1986/2/5 1978/2/5 1977/2/5
f 1986/3/5 1977/3/5 1985/3/5
f 1987/2/5 1978/2/5 1986/2/5
f 1988/2/5 1982/2/5 1981/2/5
f 1989/3/5 1983/3/5 1982/3/5
f 1989/2/5 1982/2/5 1988/2/5
f 1990/3/5 1983/3/5 1989/3/5
f 1991/3/5 1985/3/5 1984/3/5
f 1992/2/5 1986/2/5 1985/2/5
f 1992/3/5 1985/3/5 1991/3/5
f 1993/2/5 1986/2/5 1992/2/5
f 1994/2/5 1990/2/5 1989/2/5
f 1994/2/5 1991/2/5 1990/2/5
f 1994/2/5 1992/2/5 1991/2/5
f 1995/2/5 1992/2/5 1994/2/5
f 1999/4/5 1997/4/5 1996/4/5
f 2000/4/5 1997/4/5 1999/4/5
f 2001/4/5 1999/4/5 1998/4/5
f 2002/4/5 1999/4/5 2001/4/5
f 2004/4/5 2003/4/5 2002/4/5
f 2005/4/5 2003/4/5 2004/4/5
f 2006/4/6 2007/4/6 2009/4/6
f 2009/4/6 2007/4/6 2010/4/6
f 2008/4/6 2009/4/6 2012/4/6
f 2012/4/6 2009/4/6 2013/4/6
f 2010/4/6 2011/4/6 2014/4/6
f 2014/4/6 2011/4/6 2015/4/6
f 2016/4/6 2017/4/6 2019/4/6
f 2019/4/6 2017/4/6 2020/4/6
f 2018/4/6 2019/4/6 2021/4/6
f 2021/4/6 2019/4/6 2022/4/6
f 2022/4/6 2023/4/6 2024/4/6
f 2024/4/6 2023/4/6 2025/4/6
f 2026/4/6 2027/4/6 2030/4/6
f 2030/4/6 2027/4/6 2031/4/6
f 2028/4/6 2029/4/6 2032/4/6
f 2032/4/6 2029/4/6 2033/4/6
f 2031/4/6 2032/4/6 2034/4/6
f 2034/4/6 2032/4/6 2035/4/6
f 2036/4/6 2037/4/6 2038/4/6
f 2038/4/6 2037/4/6 2039/4/6
f 2040/4/6 2041/4/6 2042/4/6
f 2042/4/6 2041/4/6 2043/4/6
f 2044/4/6 2045/4/6 2046/4/6
f 2046/4/6 2045/4/6 2047/4/6
f 2048/2/6 2049/2/6 2051/2/6
f 2051/2/6 2049/2/6 2052/2/6
f 2050/2/6 2051/2/6 2055/2/6
f 2055/2/6 2051/2/6 2056/2/6
f 2052/2/6 2053/2/6 2057/2/6
f 2057/2/6 2053/2/6 2058/2/6
f 2054/2/6 2055/2/6 2061/2/6
f 2061/2/6 2055/2/6 2062/2/6
f 2058/2/6 2059/2/6 2063/2/6
f 2063/2/6 2059/2/6 2064/2/6
f 2060/2/6 2061/2/6 2067/2/6
f 2067/2/6 2061/2/6 2068/2/6
f 2064/2/6 2065/2/6 2069/2/6
f 2069/2/6 2065/2/6 2070/2/6
f 2066/2/6 2067/2/6 2072/2/6
f 2072/2/6 2067/2/6 2073/2/6
f 2070/2/6 2065/2/6 2074/2/6
f 2074/2/6 2065/2/6 2075/2/6
f 2071/2/6 2072/2/6 2078/2/6
f 2078/2/6 2072/2/6 2079/2/6
f 2075/2/6 2076/2/6 2080/2/6
f 2080/2/6 2076/2/6 2081/2/6
f 2077/2/6 2078/2/6 2084/2/6
f 2084/2/6 2078/2/6 2085/2/6
f 2081/2/6 2082/2/6 2086/2/6
f 2086/2/6 2082/2/6 2087/2/6
f 2083/2/6 2084/2/6 2089/2/6
f 2089/2/6 2084/2/6 2090/2/6
f 2087/2/6 2088/2/6 2093/2/6
f 2093/2/6 2088/2/6 2094/2/6
f 2090/2/6 2091/2/6 2095/2/6
f 2095/2/6 2091/2/6 2096/2/6
f 2092/2/6 2093/2/6 2099/2/6
f 2099/2/6 2093/2/6 2100/2/6
f 2096/2/6 2097/2/6 2101/2/6
f 2101/2/6 2097/2/6 2102/2/6
f 2098/2/6 2099/2/6 2105/2/6
f 2105/2/6 2099/2/6 2106/2/6
f 2102/2/6 2103/2/6 2107/2/6
f 2107/2/6 2103/2/6 2108/2/6
f 2104/2/6 2105/2/6 2111/2/6
f 2111/2/6 2105/2/6 2112/2/6
f 2108/2/6 2109/2/6 2113/2/6
f 2113/2/6 2109/2/6 2114/2/6
f 2110/2/6 2111/2/6 2117/2/6
f 2117/2/6 2111/2/6 2118/2/6
f 2114/2/6 2115/2/6 2119/2/6
f 2119/2/6 2115/2/6 2120/2/6
f 2116/2/6 2117/2/6 2123/2/6
f 2123/2/6 2117/2/6 2124/2/6
f 2120/2/6 2121/2/6 2125/2/6
f 2125/2/6 2121/2/6 2126/2/6
f 2122/2/6 2123/2/6 2127/2/6
f 2127/2/6 2123/2/6 2128/2/6
f 2126/2/6 2127/2/6 2129/2/6
f 2129/2/6 2127/2/6 2130/2/6
f 2131/3/6 2132/3/6 2134/3/6
f 2134/3/6 2132/3/6 2135/3/6
f 2135/3/6 2132/3/6 2136/3/6
f 2136/3/6 2132/3/6 2137/3/6
f 2133/3/6 2134/3/6 2140/3/6
f 2140/3/6 2134/3/6 2141/3/6
f 2137/3/6 2138/3/6 2144/3/6
f 2144/3/6 2138/3/6 2145/3/6
f 2139/3/6 2140/3/6 2148/3/6
f 2148/3/6 2140/3/6 2149/3/6
f 2145/3/6 2146/3/6 2150/3/6
f 2150/3/6 2146/3/6 2151/3/6
f 2147/3/6 2148/3/6 2154/3/6
f 2154/3/6 2148/3/6 2155/3/6
f 2151/3/6 2152/3/6 2156/3/6
f 2156/3/6 2152/3/6 2157/3/6
f 2153/3/6 2154/3/6 2160/3/6
f 2160/3/6 2154/3/6 2161/3/6
f 2142/3/6 2143/3/6 2162/3/6
f 2162/3/6 2143/3/6 2163/3/6
f 2157/3/6 2158/3/6 2164/3/6
f 2164/3/6 2158/3/6 2165/3/6
f 2159/3/6 2160/3/6 2168/3/6
f 2168/3/6 2160/3/6 2169/3/6
f 2165/3/6 2166/3/6 2170/3/6
f 2170/3/6 2166/3/6 2171/3/6
f 2167/3/6 2168/3/6 2173/3/6
f 2171/3/6 2172/3/6 2178/3/6
f 2167/3/6 2173/3/6 2179/3/6
f 2174/3/6 2175/3/6 2180/3/6
f 2180/3/6 2175/3/6 2181/3/6
f 2176/3/6 2177/3/6 2182/3/6
f 2182/3/6 2177/3/6 2183/3/6
f 2178/3/6 2172/3/6 2184/3/6
f 2167/3/6 2179/3/6 2185/3/6
f 2185/3/6 2179/3/6 2186/3/6
f 2184/3/6 2172/3/6 2189/3/6
f 2189/3/6 2172/3/6 2190/3/6
f 2186/3/6 2187/3/6 2191/3/6
f 2191/3/6 2187/3/6 2192/3/6
f 2188/3/6 2189/3/6 2197/3/6
f 2197/3/6 2189/3/6 2198/3/6
f 2192/3/6 2193/3/6 2199/3/6
f 2199/3/6 2193/3/6 2200/3/6
f 2196/3/6 2197/3/6 2203/3/6
f 2203/3/6 2197/3/6 2204/3/6
f 2200/3/6 2201/3/6 2205/3/6
f 2205/3/6 2201/3/6 2206/3/6
f 2202/3/6 2203/3/6 2209/3/6
f 2209/3/6 2203/3/6 2210/3/6
f 2206/3/6 2207/3/6 2211/3/6
f 2211/3/6 2207/3/6 2212/3/6
f 2194/3/6 2195/3/6 2214/3/6
f 2214/3/6 2195/3/6 2215/3/6
f 2208/3/6 2209/3/6 2217/3/6
f 2217/3/6 2209/3/6 2218/3/6
f 2212/3/6 2213/3/6 2219/3/6
f 2219/3/6 2213/3/6 2220/3/6
f 2216/3/6 2217/3/6 2223/3/6
f 2223/3/6 2217/3/6 2224/3/6
f 2221/3/6 2222/3/6 2225/3/6
f 2222/3/6 2223/3/6 2225/3/6
f 2220/3/6 2221/3/6 2225/3/6
f 2225/3/6 2223/3/6 2226/3/6
f 2227/4/6 2228/4/6 2229/4/6
f 2229/4/6 2228/4/6 2230/4/6
f 2231/3/6 2232/3/6 2235/3/6
f 2235/3/6 2232/3/6 2236/3/6
f 2233/3/6 2234/3/6 2237/3/6
f 2237/3/6 2234/3/6 2238/3/6
f 2239/4/6 2240/4/6 2241/4/6
f 2241/4/6 2240/4/6 2242/4/6
f 2243/4/6 2244/4/6 2245/4/6
f 2245/4/6 2244/4/6 2246/4/6
f 2247/3/6 2248/3/6 2251/3/6
f 2251/3/6 2248/3/6 2252/3/6
f 2249/3/6 2250/3/6 2253/3/6
f 2253/3/6 2250/3/6 2254/3/6
f 2255/4/6 2256/4/6 2257/4/6
f 2257/4/6 2256/4/6 2258/4/6
f 2259/4/6 2260/4/6 2261/4/6
f 2261/4/6 2260/4/6 2262/4/6
f 2263/3/6 2264/3/6 2267/3/6
f 2267/3/6 2264/3/6 2268/3/6
f 2265/3/6 2266/3/6 2269/3/6
f 2269/3/6 2266/3/6 2270/3/6
f 2271/4/6 2272/4/6 2273/4/6
f 2273/4/6 2272/4/6 2274/4/6
f 2275/4/6 2276/4/6 2277/4/6
f 2277/4/6 2276/4/6 2278/4/6
f 2279/3/6 2280/3/6 2283/3/6
f 2283/3/6 2280/3/6 2284/3/6
f 2281/3/6 2282/3/6 2285/3/6
f 2285/3/6 2282/3/6 2286/3/6
f 2287/4/6 2288/4/6 2289/4/6
f 2289/4/6 2288/4/6 2290/4/6
f 2291/2/6 2292/2/6 2294/2/6
f 2294/2/6 2292/2/6 2295/2/6
f 2293/2/6 2294/2/6 2298/2/6
f 2298/2/6 2294/2/6 2299/2/6
f 2295/2/6 2296/2/6 2300/2/6
f 2300/2/6 2296/2/6 2301/2/6
f 2297/2/6 2298/2/6 2304/2/6
f 2304/2/6 2298/2/6 2305/2/6
f 2301/2/6 2302/2/6 2306/2/6
f 2306/2/6 2302/2/6 2307/2/6
f 2303/2/6 2304/2/6 2310/2/6
f 2310/2/6 2304/2/6 2311/2/6
f 2307/2/6 2308/2/6 2312/2/6
f 2312/2/6 2308/2/6 2313/2/6
f 2309/4/6 2310/4/6 2316/4/6
f 2316/4/6 2310/4/6 2317/4/6
f 2315/4/6 2316/4/6 2318/4/6
f 2318/4/6 2316/4/6 2319/4/6
f 2313/2/6 2314/2/6 2321/2/6
f 2321/2/6 2314/2/6 2322/2/6
f 2319/4/6 2320/4/6 2323/4/6
f 2323/4/6 2320/4/6 2324/4/6
f 2324/2/6 2325/2/6 2328/2/6
f 2328/2/6 2325/2/6 2329/2/6
f 2326/2/6 2327/2/6 2332/2/6
f 2332/2/6 2327/2/6 2333/2/6
f 2329/2/6 2330/2/6 2334/2/6
f 2334/2/6 2330/2/6 2335/2/6
f 2331/2/6 2332/2/6 2338/2/6
f 2338/2/6 2332/2/6 2339/2/6
f 2335/2/6 2336/2/6 2340/2/6
f 2340/2/6 2336/2/6 2341/2/6
f 2337/2/6 2338/2/6 2342/2/6
f 2342/2/6 2338/2/6 2343/2/6
f 2341/2/6 2342/2/6 2344/2/6
f 2344/2/6 2342/2/6 2345/2/6
f 2346/2/6 2347/2/6 2349/2/6
f 2349/2/6 2347/2/6 2350/2/6
f 2348/2/6 2349/2/6 2353/2/6
f 2353/2/6 2349/2/6 2354/2/6
f 2350/2/6 2351/2/6 2355/2/6
f 2355/2/6 2351/2/6 2356/2/6
f 2352/2/6 2353/2/6 2359/2/6
f 2359/2/6 2353/2/6 2360/2/6
f 2356/2/6 2357/2/6 2361/2/6
f 2361/2/6 2357/2/6 2362/2/6
f 2358/2/6 2359/2/6 2365/2/6
f 2364/4/6 2365/4/6 2366/4/6
f 2365/2/6 2359/2/6 2367/2/6
f 2366/4/6 2365/4/6 2367/4/6
f 2362/2/6 2363/2/6 2368/2/6
f 2367/2/6 2359/2/6 2369/2/6
f 2369/2/6 2359/2/6 2370/2/6
f 2362/2/6 2368/2/6 2373/2/6
f 2373/2/6 2368/2/6 2374/2/6
f 2370/2/6 2371/2/6 2375/2/6
f 2375/2/6 2371/2/6 2376/2/6
f 2372/2/6 2373/2/6 2379/2/6
f 2379/2/6 2373/2/6 2380/2/6
f 2376/2/6 2377/2/6 2381/2/6
f 2381/2/6 2377/2/6 2382/2/6
f 2378/2/6 2379/2/6 2383/2/6
f 2383/2/6 2379/2/6 2384/2/6
f 2382/2/6 2383/2/6 2385/2/6
f 2385/2/6 2383/2/6 2386/2/6
f 2387/1/6 2388/1/6 2389/1/6
f 2389/1/6 2388/1/6 2390/1/6
